G75*
G70*
%OFA0B0*%
%FSLAX24Y24*%
%IPPOS*%
%LPD*%
%AMOC8*
5,1,8,0,0,1.08239X$1,22.5*
%
%ADD10C,0.0039*%
D10*
X016472Y002176D02*
X017142Y002176D01*
X017168Y002180D01*
X017193Y002188D01*
X017217Y002199D01*
X017239Y002214D01*
X017260Y002231D01*
X017277Y002250D01*
X017292Y002272D01*
X017304Y002296D01*
X017313Y002321D01*
X017318Y002347D01*
X017320Y002373D01*
X017318Y002399D01*
X017313Y002425D01*
X017304Y002450D01*
X017292Y002474D01*
X017277Y002496D01*
X017260Y002515D01*
X017239Y002532D01*
X017217Y002547D01*
X017193Y002558D01*
X017168Y002566D01*
X017142Y002570D01*
X016472Y002570D01*
X016445Y002568D01*
X016419Y002563D01*
X016394Y002554D01*
X016370Y002541D01*
X016348Y002526D01*
X016328Y002507D01*
X016311Y002487D01*
X016297Y002464D01*
X016286Y002439D01*
X016279Y002413D01*
X016275Y002386D01*
X016275Y002360D01*
X016279Y002333D01*
X016286Y002307D01*
X016297Y002282D01*
X016311Y002259D01*
X016328Y002239D01*
X016348Y002220D01*
X016370Y002205D01*
X016394Y002192D01*
X016419Y002183D01*
X016445Y002178D01*
X016472Y002176D01*
X016433Y006664D02*
X017102Y006664D01*
X017103Y006664D02*
X017129Y006668D01*
X017154Y006676D01*
X017178Y006687D01*
X017200Y006702D01*
X017221Y006719D01*
X017238Y006738D01*
X017253Y006760D01*
X017265Y006784D01*
X017274Y006809D01*
X017279Y006835D01*
X017281Y006861D01*
X017279Y006887D01*
X017274Y006913D01*
X017265Y006938D01*
X017253Y006962D01*
X017238Y006984D01*
X017221Y007003D01*
X017200Y007020D01*
X017178Y007035D01*
X017154Y007046D01*
X017129Y007054D01*
X017103Y007058D01*
X017102Y007058D02*
X016433Y007058D01*
X016406Y007056D01*
X016380Y007051D01*
X016355Y007042D01*
X016331Y007029D01*
X016309Y007014D01*
X016289Y006995D01*
X016272Y006975D01*
X016258Y006952D01*
X016247Y006927D01*
X016240Y006901D01*
X016236Y006874D01*
X016236Y006848D01*
X016240Y006821D01*
X016247Y006795D01*
X016258Y006770D01*
X016272Y006747D01*
X016289Y006727D01*
X016309Y006708D01*
X016331Y006693D01*
X016355Y006680D01*
X016380Y006671D01*
X016406Y006666D01*
X016433Y006664D01*
M02*
