G75*
G70*
%OFA0B0*%
%FSLAX24Y24*%
%IPPOS*%
%LPD*%
%AMOC8*
5,1,8,0,0,1.08239X$1,22.5*
%
%ADD10R,0.0315X0.0354*%
%ADD11R,0.0354X0.0315*%
%ADD12R,0.0394X0.0433*%
%ADD13R,0.0433X0.0394*%
%ADD14R,0.0630X0.0512*%
%ADD15R,0.0591X0.0512*%
%ADD16R,0.0315X0.0669*%
%ADD17R,0.0394X0.0551*%
%ADD18R,0.0591X0.0098*%
%ADD19R,0.0098X0.0591*%
%ADD20R,0.0217X0.0472*%
%ADD21R,0.0551X0.0394*%
%ADD22R,0.0787X0.0472*%
%ADD23C,0.0591*%
%ADD24R,0.0300X0.0940*%
%ADD25R,0.0472X0.0551*%
%ADD26C,0.0100*%
%ADD27C,0.0310*%
%ADD28C,0.0080*%
%ADD29C,0.0160*%
%ADD30C,0.0240*%
D10*
X000827Y006473D03*
X001575Y006473D03*
X001201Y007300D03*
D11*
X000907Y005941D03*
X001734Y005567D03*
X000907Y005193D03*
X002657Y004191D03*
X003484Y003817D03*
X002657Y003443D03*
X001495Y003341D03*
X000668Y002967D03*
X001495Y002593D03*
X001557Y002041D03*
X002384Y001667D03*
X003057Y002041D03*
X003884Y001667D03*
X003057Y001293D03*
X001557Y001293D03*
X007095Y004943D03*
X006268Y005317D03*
X007095Y005691D03*
X007818Y006117D03*
X008645Y005743D03*
X008645Y006491D03*
D12*
X012051Y006982D03*
X012051Y007651D03*
X004351Y004101D03*
X004351Y003432D03*
X002001Y003982D03*
X001151Y003832D03*
X001151Y004501D03*
X002001Y004651D03*
X004651Y002301D03*
X004651Y001632D03*
X012201Y001951D03*
X012201Y001282D03*
X015251Y001332D03*
X015251Y002001D03*
D13*
G36*
X013765Y003243D02*
X013460Y002938D01*
X013181Y003217D01*
X013486Y003522D01*
X013765Y003243D01*
G37*
G36*
X014238Y003716D02*
X013933Y003411D01*
X013654Y003690D01*
X013959Y003995D01*
X014238Y003716D01*
G37*
X013917Y004417D03*
X014586Y004417D03*
X014586Y005017D03*
X013917Y005017D03*
X014317Y005817D03*
X014986Y005817D03*
X009286Y002367D03*
X008617Y002367D03*
X002986Y002667D03*
X002317Y002667D03*
X002917Y005367D03*
X003586Y005367D03*
X003586Y006167D03*
X002917Y006167D03*
X002736Y007517D03*
X002067Y007517D03*
D14*
X012903Y002320D03*
X014399Y002320D03*
X014399Y001414D03*
X012903Y001414D03*
D15*
X005101Y006793D03*
X005101Y007541D03*
X007501Y007641D03*
X007501Y006893D03*
X014851Y006993D03*
X014851Y007741D03*
D16*
X010120Y001667D03*
X008782Y001667D03*
D17*
X013377Y006934D03*
X014125Y006934D03*
X013751Y007800D03*
D18*
G36*
X010300Y006543D02*
X010716Y006127D01*
X010646Y006057D01*
X010230Y006473D01*
X010300Y006543D01*
G37*
G36*
X010161Y006404D02*
X010577Y005988D01*
X010507Y005918D01*
X010091Y006334D01*
X010161Y006404D01*
G37*
G36*
X010022Y006265D02*
X010438Y005849D01*
X010368Y005779D01*
X009952Y006195D01*
X010022Y006265D01*
G37*
G36*
X009883Y006126D02*
X010299Y005710D01*
X010229Y005640D01*
X009813Y006056D01*
X009883Y006126D01*
G37*
G36*
X009743Y005986D02*
X010159Y005570D01*
X010089Y005500D01*
X009673Y005916D01*
X009743Y005986D01*
G37*
G36*
X009604Y005847D02*
X010020Y005431D01*
X009950Y005361D01*
X009534Y005777D01*
X009604Y005847D01*
G37*
G36*
X009465Y005708D02*
X009881Y005292D01*
X009811Y005222D01*
X009395Y005638D01*
X009465Y005708D01*
G37*
G36*
X009326Y005569D02*
X009742Y005153D01*
X009672Y005083D01*
X009256Y005499D01*
X009326Y005569D01*
G37*
G36*
X009187Y005430D02*
X009603Y005014D01*
X009533Y004944D01*
X009117Y005360D01*
X009187Y005430D01*
G37*
G36*
X009048Y005290D02*
X009464Y004874D01*
X009394Y004804D01*
X008978Y005220D01*
X009048Y005290D01*
G37*
G36*
X008908Y005151D02*
X009324Y004735D01*
X009254Y004665D01*
X008838Y005081D01*
X008908Y005151D01*
G37*
G36*
X008769Y005012D02*
X009185Y004596D01*
X009115Y004526D01*
X008699Y004942D01*
X008769Y005012D01*
G37*
G36*
X012277Y003731D02*
X012693Y003315D01*
X012623Y003245D01*
X012207Y003661D01*
X012277Y003731D01*
G37*
G36*
X012416Y003871D02*
X012832Y003455D01*
X012762Y003385D01*
X012346Y003801D01*
X012416Y003871D01*
G37*
G36*
X012555Y004010D02*
X012971Y003594D01*
X012901Y003524D01*
X012485Y003940D01*
X012555Y004010D01*
G37*
G36*
X012694Y004149D02*
X013110Y003733D01*
X013040Y003663D01*
X012624Y004079D01*
X012694Y004149D01*
G37*
G36*
X012138Y003592D02*
X012554Y003176D01*
X012484Y003106D01*
X012068Y003522D01*
X012138Y003592D01*
G37*
G36*
X011998Y003453D02*
X012414Y003037D01*
X012344Y002967D01*
X011928Y003383D01*
X011998Y003453D01*
G37*
G36*
X011859Y003314D02*
X012275Y002898D01*
X012205Y002828D01*
X011789Y003244D01*
X011859Y003314D01*
G37*
G36*
X011720Y003175D02*
X012136Y002759D01*
X012066Y002689D01*
X011650Y003105D01*
X011720Y003175D01*
G37*
G36*
X011581Y003035D02*
X011997Y002619D01*
X011927Y002549D01*
X011511Y002965D01*
X011581Y003035D01*
G37*
G36*
X011442Y002896D02*
X011858Y002480D01*
X011788Y002410D01*
X011372Y002826D01*
X011442Y002896D01*
G37*
G36*
X011302Y002757D02*
X011718Y002341D01*
X011648Y002271D01*
X011232Y002687D01*
X011302Y002757D01*
G37*
G36*
X011163Y002618D02*
X011579Y002202D01*
X011509Y002132D01*
X011093Y002548D01*
X011163Y002618D01*
G37*
D19*
G36*
X010646Y002618D02*
X010716Y002548D01*
X010300Y002132D01*
X010230Y002202D01*
X010646Y002618D01*
G37*
G36*
X010507Y002757D02*
X010577Y002687D01*
X010161Y002271D01*
X010091Y002341D01*
X010507Y002757D01*
G37*
G36*
X010368Y002896D02*
X010438Y002826D01*
X010022Y002410D01*
X009952Y002480D01*
X010368Y002896D01*
G37*
G36*
X010229Y003035D02*
X010299Y002965D01*
X009883Y002549D01*
X009813Y002619D01*
X010229Y003035D01*
G37*
G36*
X010089Y003175D02*
X010159Y003105D01*
X009743Y002689D01*
X009673Y002759D01*
X010089Y003175D01*
G37*
G36*
X009950Y003314D02*
X010020Y003244D01*
X009604Y002828D01*
X009534Y002898D01*
X009950Y003314D01*
G37*
G36*
X009811Y003453D02*
X009881Y003383D01*
X009465Y002967D01*
X009395Y003037D01*
X009811Y003453D01*
G37*
G36*
X009672Y003592D02*
X009742Y003522D01*
X009326Y003106D01*
X009256Y003176D01*
X009672Y003592D01*
G37*
G36*
X009533Y003731D02*
X009603Y003661D01*
X009187Y003245D01*
X009117Y003315D01*
X009533Y003731D01*
G37*
G36*
X009394Y003871D02*
X009464Y003801D01*
X009048Y003385D01*
X008978Y003455D01*
X009394Y003871D01*
G37*
G36*
X009254Y004010D02*
X009324Y003940D01*
X008908Y003524D01*
X008838Y003594D01*
X009254Y004010D01*
G37*
G36*
X009115Y004149D02*
X009185Y004079D01*
X008769Y003663D01*
X008699Y003733D01*
X009115Y004149D01*
G37*
G36*
X012344Y005708D02*
X012414Y005638D01*
X011998Y005222D01*
X011928Y005292D01*
X012344Y005708D01*
G37*
G36*
X012205Y005847D02*
X012275Y005777D01*
X011859Y005361D01*
X011789Y005431D01*
X012205Y005847D01*
G37*
G36*
X012066Y005986D02*
X012136Y005916D01*
X011720Y005500D01*
X011650Y005570D01*
X012066Y005986D01*
G37*
G36*
X011927Y006126D02*
X011997Y006056D01*
X011581Y005640D01*
X011511Y005710D01*
X011927Y006126D01*
G37*
G36*
X011788Y006265D02*
X011858Y006195D01*
X011442Y005779D01*
X011372Y005849D01*
X011788Y006265D01*
G37*
G36*
X011648Y006404D02*
X011718Y006334D01*
X011302Y005918D01*
X011232Y005988D01*
X011648Y006404D01*
G37*
G36*
X011509Y006543D02*
X011579Y006473D01*
X011163Y006057D01*
X011093Y006127D01*
X011509Y006543D01*
G37*
G36*
X012484Y005569D02*
X012554Y005499D01*
X012138Y005083D01*
X012068Y005153D01*
X012484Y005569D01*
G37*
G36*
X012623Y005430D02*
X012693Y005360D01*
X012277Y004944D01*
X012207Y005014D01*
X012623Y005430D01*
G37*
G36*
X012762Y005290D02*
X012832Y005220D01*
X012416Y004804D01*
X012346Y004874D01*
X012762Y005290D01*
G37*
G36*
X012901Y005151D02*
X012971Y005081D01*
X012555Y004665D01*
X012485Y004735D01*
X012901Y005151D01*
G37*
G36*
X013040Y005012D02*
X013110Y004942D01*
X012694Y004526D01*
X012624Y004596D01*
X013040Y005012D01*
G37*
D20*
X006525Y006705D03*
X006151Y006705D03*
X005777Y006705D03*
X005777Y007729D03*
X006145Y007729D03*
X006525Y007729D03*
D21*
X004384Y007541D03*
X003518Y007167D03*
X004384Y006793D03*
X010368Y006943D03*
X011234Y007317D03*
X010368Y007691D03*
D22*
X015764Y005995D03*
X015764Y005010D03*
X015764Y004223D03*
X015764Y003239D03*
D23*
X016492Y002373D02*
X017083Y002373D01*
X017043Y006861D02*
X016453Y006861D01*
D24*
X007851Y003667D03*
X007351Y003667D03*
X006851Y003667D03*
X006351Y003667D03*
X005851Y003667D03*
X005851Y001667D03*
X006351Y001667D03*
X006851Y001667D03*
X007351Y001667D03*
X007851Y001667D03*
D25*
X005542Y004967D03*
X004361Y004967D03*
X004361Y005867D03*
X005542Y005867D03*
D26*
X000401Y002729D02*
X000401Y001117D01*
X001230Y001117D01*
X001230Y001264D01*
X001528Y001264D01*
X001528Y001321D01*
X001230Y001321D01*
X001230Y001470D01*
X001241Y001508D01*
X001260Y001542D01*
X001288Y001570D01*
X001322Y001590D01*
X001361Y001600D01*
X001529Y001600D01*
X001529Y001322D01*
X001586Y001322D01*
X001586Y001600D01*
X001754Y001600D01*
X001793Y001590D01*
X001827Y001570D01*
X001855Y001542D01*
X001874Y001508D01*
X001885Y001470D01*
X001885Y001321D01*
X001586Y001321D01*
X001586Y001264D01*
X001885Y001264D01*
X001885Y001117D01*
X002730Y001117D01*
X002730Y001264D01*
X003028Y001264D01*
X003028Y001321D01*
X002730Y001321D01*
X002730Y001470D01*
X002741Y001508D01*
X002760Y001542D01*
X002788Y001570D01*
X002822Y001590D01*
X002861Y001600D01*
X003029Y001600D01*
X003029Y001322D01*
X003086Y001322D01*
X003086Y001600D01*
X003254Y001600D01*
X003293Y001590D01*
X003327Y001570D01*
X003355Y001542D01*
X003374Y001508D01*
X003385Y001470D01*
X003385Y001321D01*
X003086Y001321D01*
X003086Y001264D01*
X003385Y001264D01*
X003385Y001117D01*
X005612Y001117D01*
X005581Y001147D01*
X005581Y002186D01*
X005651Y002257D01*
X005721Y002257D01*
X005721Y002353D01*
X006109Y002740D01*
X006038Y002811D01*
X005996Y002912D01*
X005996Y003016D01*
X005936Y003076D01*
X005917Y003057D01*
X005785Y003057D01*
X005765Y003077D01*
X005651Y003077D01*
X005581Y003147D01*
X005581Y004186D01*
X005651Y004257D01*
X006051Y004257D01*
X006101Y004206D01*
X006151Y004257D01*
X006179Y004257D01*
X006156Y004312D01*
X006156Y004421D01*
X006198Y004523D01*
X006275Y004600D01*
X006376Y004642D01*
X006486Y004642D01*
X006587Y004600D01*
X006664Y004523D01*
X006681Y004482D01*
X006698Y004523D01*
X006775Y004600D01*
X006876Y004642D01*
X006986Y004642D01*
X007087Y004600D01*
X007164Y004523D01*
X007206Y004421D01*
X007206Y004312D01*
X007183Y004257D01*
X007551Y004257D01*
X007601Y004206D01*
X007651Y004257D01*
X008051Y004257D01*
X008121Y004186D01*
X008121Y003706D01*
X008135Y003720D01*
X008208Y003750D01*
X008600Y004142D01*
X008496Y004142D01*
X008395Y004184D01*
X008318Y004261D01*
X008276Y004362D01*
X008276Y004465D01*
X007991Y004750D01*
X007991Y004883D01*
X007991Y005133D01*
X008085Y005227D01*
X008371Y005513D01*
X008348Y005536D01*
X008348Y005950D01*
X008418Y006020D01*
X008872Y006020D01*
X008942Y005950D01*
X008942Y005536D01*
X008872Y005465D01*
X008776Y005465D01*
X008311Y005000D01*
X008311Y004883D01*
X008502Y004692D01*
X008606Y004692D01*
X008707Y004650D01*
X008784Y004573D01*
X008826Y004471D01*
X008826Y004368D01*
X008891Y004433D01*
X008965Y004507D01*
X008579Y004893D01*
X008579Y004993D01*
X008718Y005133D01*
X008718Y005133D01*
X008858Y005272D01*
X008997Y005411D01*
X009136Y005550D01*
X009275Y005689D01*
X009414Y005828D01*
X009554Y005968D01*
X009578Y005992D01*
X009566Y005992D01*
X009465Y006034D01*
X009388Y006111D01*
X009346Y006212D01*
X009346Y006321D01*
X009388Y006423D01*
X009465Y006500D01*
X009566Y006542D01*
X009616Y006542D01*
X009616Y006591D01*
X009658Y006693D01*
X009735Y006770D01*
X009801Y006797D01*
X009801Y006903D01*
X009895Y006997D01*
X009962Y007064D01*
X009965Y007079D01*
X009973Y007085D01*
X009973Y007189D01*
X010043Y007260D01*
X010693Y007260D01*
X010764Y007189D01*
X010764Y006696D01*
X010693Y006626D01*
X010387Y006626D01*
X010837Y006176D01*
X010837Y006076D01*
X010698Y005937D01*
X010698Y005937D01*
X010558Y005798D01*
X010419Y005659D01*
X010383Y005622D01*
X010437Y005600D01*
X010514Y005523D01*
X010556Y005421D01*
X010556Y005312D01*
X010514Y005211D01*
X010437Y005134D01*
X010336Y005092D01*
X010226Y005092D01*
X010125Y005134D01*
X010048Y005211D01*
X010026Y005265D01*
X010002Y005241D01*
X009867Y005107D01*
X010087Y005107D01*
X010181Y005013D01*
X010267Y004927D01*
X010361Y004833D01*
X010361Y004400D01*
X010267Y004307D01*
X010167Y004207D01*
X010035Y004207D01*
X009800Y004207D01*
X009834Y004173D01*
X009876Y004071D01*
X009876Y003962D01*
X009834Y003861D01*
X009757Y003784D01*
X009682Y003753D01*
X009693Y003743D01*
X009693Y003743D01*
X009731Y003732D01*
X009765Y003713D01*
X009814Y003664D01*
X009499Y003349D01*
X009499Y003350D01*
X009814Y003664D01*
X009840Y003638D01*
X010176Y003974D01*
X010176Y004021D01*
X010218Y004123D01*
X010295Y004200D01*
X010396Y004242D01*
X010506Y004242D01*
X010607Y004200D01*
X010684Y004123D01*
X010726Y004021D01*
X010726Y003927D01*
X010818Y003927D01*
X011285Y003927D01*
X011285Y003927D01*
X011441Y004083D01*
X011441Y004738D01*
X011368Y004811D01*
X011326Y004912D01*
X011326Y005021D01*
X011368Y005123D01*
X011445Y005200D01*
X011546Y005242D01*
X011656Y005242D01*
X011757Y005200D01*
X011834Y005123D01*
X011876Y005021D01*
X011876Y004912D01*
X011834Y004811D01*
X011761Y004738D01*
X011761Y003950D01*
X011737Y003927D01*
X011967Y003927D01*
X012061Y003833D01*
X012134Y003760D01*
X012225Y003851D01*
X012365Y003990D01*
X012504Y004130D01*
X012505Y004130D01*
X012644Y004269D01*
X012743Y004269D01*
X013231Y003782D01*
X013231Y003682D01*
X013091Y003542D01*
X013091Y003542D01*
X012952Y003403D01*
X012813Y003264D01*
X012721Y003173D01*
X012867Y003027D01*
X013043Y003027D01*
X013122Y003105D01*
X013061Y003166D01*
X013061Y003266D01*
X013437Y003642D01*
X013511Y003642D01*
X013504Y003670D01*
X013504Y003709D01*
X013514Y003747D01*
X013534Y003782D01*
X013667Y003914D01*
X013878Y003703D01*
X013946Y003772D01*
X013735Y003983D01*
X013852Y004100D01*
X013650Y004100D01*
X013580Y004170D01*
X013580Y004357D01*
X013535Y004357D01*
X013441Y004450D01*
X013341Y004550D01*
X013341Y004683D01*
X013341Y005000D01*
X012850Y005492D01*
X012746Y005492D01*
X012721Y005502D01*
X012813Y005410D01*
X012953Y005271D01*
X012953Y005271D01*
X013091Y005133D01*
X013091Y005133D01*
X013231Y004993D01*
X013231Y004893D01*
X012743Y004405D01*
X012644Y004405D01*
X012576Y004473D01*
X012576Y004412D01*
X012534Y004311D01*
X012457Y004234D01*
X012356Y004192D01*
X012246Y004192D01*
X012145Y004234D01*
X012068Y004311D01*
X012026Y004412D01*
X012026Y004521D01*
X012068Y004623D01*
X012145Y004700D01*
X012246Y004742D01*
X012307Y004742D01*
X012226Y004823D01*
X012087Y004962D01*
X011948Y005101D01*
X011809Y005241D01*
X011669Y005380D01*
X011530Y005519D01*
X011391Y005658D01*
X011252Y005797D01*
X011112Y005937D01*
X011112Y005937D01*
X010973Y006076D01*
X010973Y006176D01*
X011461Y006664D01*
X011560Y006664D01*
X011700Y006524D01*
X011700Y006524D01*
X011839Y006385D01*
X011978Y006245D01*
X011987Y006237D01*
X011976Y006262D01*
X011976Y006366D01*
X011891Y006450D01*
X011891Y006583D01*
X011891Y006646D01*
X011805Y006646D01*
X011734Y006716D01*
X011734Y007248D01*
X011803Y007317D01*
X011734Y007385D01*
X011734Y007657D01*
X011555Y007657D01*
X011568Y007653D01*
X011602Y007634D01*
X011630Y007606D01*
X011650Y007571D01*
X011660Y007533D01*
X011660Y007365D01*
X011283Y007365D01*
X011283Y007268D01*
X011660Y007268D01*
X011660Y007100D01*
X011650Y007062D01*
X011630Y007028D01*
X011602Y007000D01*
X011568Y006980D01*
X011530Y006970D01*
X011283Y006970D01*
X011283Y007268D01*
X011186Y007268D01*
X011186Y006970D01*
X010939Y006970D01*
X010901Y006980D01*
X010867Y007000D01*
X010839Y007028D01*
X010819Y007062D01*
X010809Y007100D01*
X010809Y007268D01*
X011186Y007268D01*
X011186Y007365D01*
X010809Y007365D01*
X010809Y007533D01*
X010819Y007571D01*
X010839Y007606D01*
X010867Y007634D01*
X010901Y007653D01*
X010914Y007657D01*
X010867Y007657D01*
X010764Y007553D01*
X010764Y007444D01*
X010693Y007374D01*
X010043Y007374D01*
X009973Y007444D01*
X009973Y007867D01*
X008734Y007867D01*
X008476Y007609D01*
X008476Y007562D01*
X008434Y007461D01*
X008357Y007384D01*
X008256Y007342D01*
X008146Y007342D01*
X008045Y007384D01*
X007968Y007461D01*
X007926Y007562D01*
X007926Y007671D01*
X007968Y007773D01*
X008045Y007850D01*
X008146Y007892D01*
X008193Y007892D01*
X008398Y008097D01*
X007701Y008097D01*
X007701Y008017D01*
X007846Y008017D01*
X007916Y007946D01*
X007916Y007335D01*
X007848Y007267D01*
X007916Y007198D01*
X007916Y006587D01*
X007846Y006517D01*
X007358Y006517D01*
X007346Y006505D01*
X007333Y006505D01*
X007322Y006497D01*
X007252Y006505D01*
X006753Y006505D01*
X006753Y006419D01*
X006683Y006349D01*
X006367Y006349D01*
X006359Y006357D01*
X006352Y006349D01*
X006317Y006329D01*
X006279Y006319D01*
X006155Y006319D01*
X006155Y006701D01*
X006147Y006701D01*
X006147Y006319D01*
X006023Y006319D01*
X005985Y006329D01*
X005951Y006349D01*
X005943Y006357D01*
X005935Y006349D01*
X005619Y006349D01*
X005549Y006419D01*
X005549Y006991D01*
X005615Y007057D01*
X005546Y007057D01*
X005546Y006843D01*
X005151Y006843D01*
X005151Y006743D01*
X005546Y006743D01*
X005546Y006517D01*
X005536Y006479D01*
X005516Y006445D01*
X005489Y006417D01*
X005454Y006397D01*
X005416Y006387D01*
X005151Y006387D01*
X005151Y006743D01*
X005051Y006743D01*
X005051Y006387D01*
X004786Y006387D01*
X004748Y006397D01*
X004714Y006417D01*
X004686Y006445D01*
X004668Y006476D01*
X004059Y006476D01*
X003989Y006546D01*
X003989Y007039D01*
X004059Y007110D01*
X004418Y007110D01*
X004532Y007224D01*
X004059Y007224D01*
X003989Y007294D01*
X003989Y007787D01*
X004059Y007858D01*
X004697Y007858D01*
X004756Y007917D01*
X005446Y007917D01*
X005516Y007846D01*
X005516Y007377D01*
X005615Y007377D01*
X005549Y007443D01*
X005549Y008014D01*
X005551Y008017D01*
X005551Y008097D01*
X000401Y008097D01*
X000401Y004682D01*
X000418Y004723D01*
X000495Y004800D01*
X000596Y004842D01*
X000706Y004842D01*
X000807Y004800D01*
X000837Y004770D01*
X000905Y004838D01*
X001398Y004838D01*
X001468Y004768D01*
X001468Y004235D01*
X001400Y004167D01*
X001468Y004098D01*
X001468Y003618D01*
X001722Y003618D01*
X001792Y003548D01*
X001792Y003377D01*
X002017Y003377D01*
X002111Y003283D01*
X002411Y002984D01*
X002583Y002984D01*
X002651Y002915D01*
X002720Y002984D01*
X003252Y002984D01*
X003322Y002913D01*
X003322Y002420D01*
X003252Y002350D01*
X003146Y002350D01*
X003146Y002318D01*
X003284Y002318D01*
X003355Y002248D01*
X003355Y001834D01*
X003284Y001763D01*
X002831Y001763D01*
X002760Y001834D01*
X002760Y002248D01*
X002826Y002313D01*
X002826Y002350D01*
X002720Y002350D01*
X002651Y002418D01*
X002583Y002350D01*
X002476Y002350D01*
X002476Y001944D01*
X002611Y001944D01*
X002681Y001874D01*
X002681Y001460D01*
X002611Y001389D01*
X002157Y001389D01*
X002087Y001460D01*
X002087Y001874D01*
X002157Y001943D01*
X002157Y002350D01*
X002050Y002350D01*
X001980Y002420D01*
X001980Y002913D01*
X002004Y002937D01*
X001885Y003057D01*
X001685Y003057D01*
X001553Y003057D01*
X001546Y003063D01*
X001268Y003063D01*
X001198Y003134D01*
X001198Y003412D01*
X001114Y003496D01*
X000905Y003496D01*
X000834Y003566D01*
X000834Y004098D01*
X000903Y004167D01*
X000834Y004235D01*
X000834Y004341D01*
X000815Y004341D01*
X000807Y004334D01*
X000706Y004292D01*
X000596Y004292D01*
X000495Y004334D01*
X000418Y004411D01*
X000401Y004452D01*
X000401Y003204D01*
X000441Y003244D01*
X000895Y003244D01*
X000965Y003174D01*
X000965Y002760D01*
X000895Y002689D01*
X000441Y002689D01*
X000401Y002729D01*
X000401Y002641D02*
X001198Y002641D01*
X001198Y002739D02*
X000945Y002739D01*
X000965Y002838D02*
X001235Y002838D01*
X001268Y002870D02*
X001198Y002800D01*
X001198Y002386D01*
X001268Y002315D01*
X001328Y002315D01*
X001260Y002248D01*
X001260Y001834D01*
X001331Y001763D01*
X001784Y001763D01*
X001855Y001834D01*
X001855Y002248D01*
X001784Y002318D01*
X001725Y002318D01*
X001792Y002386D01*
X001792Y002800D01*
X001722Y002870D01*
X001268Y002870D01*
X000965Y002936D02*
X002003Y002936D01*
X001980Y002838D02*
X001754Y002838D01*
X001792Y002739D02*
X001980Y002739D01*
X001980Y002641D02*
X001792Y002641D01*
X001792Y002542D02*
X001980Y002542D01*
X001980Y002443D02*
X001792Y002443D01*
X001751Y002345D02*
X002157Y002345D01*
X002157Y002246D02*
X001855Y002246D01*
X001855Y002148D02*
X002157Y002148D01*
X002157Y002049D02*
X001855Y002049D01*
X001855Y001951D02*
X002157Y001951D01*
X002087Y001852D02*
X001855Y001852D01*
X002087Y001754D02*
X000401Y001754D01*
X000401Y001852D02*
X001260Y001852D01*
X001260Y001951D02*
X000401Y001951D01*
X000401Y002049D02*
X001260Y002049D01*
X001260Y002148D02*
X000401Y002148D01*
X000401Y002246D02*
X001260Y002246D01*
X001238Y002345D02*
X000401Y002345D01*
X000401Y002443D02*
X001198Y002443D01*
X001198Y002542D02*
X000401Y002542D01*
X000965Y003035D02*
X001907Y003035D01*
X002162Y003232D02*
X002339Y003232D01*
X002341Y003227D02*
X002360Y003193D01*
X002388Y003165D01*
X002422Y003146D01*
X002461Y003135D01*
X002629Y003135D01*
X002629Y003414D01*
X002686Y003414D01*
X002686Y003135D01*
X002854Y003135D01*
X002893Y003146D01*
X002927Y003165D01*
X002955Y003193D01*
X002974Y003227D01*
X002985Y003266D01*
X002985Y003414D01*
X002686Y003414D01*
X002686Y003471D01*
X002985Y003471D01*
X002985Y003620D01*
X002974Y003658D01*
X002955Y003692D01*
X002927Y003720D01*
X002893Y003740D01*
X002854Y003750D01*
X002686Y003750D01*
X002686Y003472D01*
X002629Y003472D01*
X002629Y003750D01*
X002461Y003750D01*
X002422Y003740D01*
X002388Y003720D01*
X002360Y003692D01*
X002341Y003658D01*
X002330Y003620D01*
X002330Y003471D01*
X002628Y003471D01*
X002628Y003414D01*
X002330Y003414D01*
X002330Y003266D01*
X002341Y003227D01*
X002330Y003330D02*
X002064Y003330D01*
X001792Y003429D02*
X002628Y003429D01*
X002686Y003429D02*
X004034Y003429D01*
X004034Y003523D02*
X004034Y003166D01*
X004105Y003096D01*
X004211Y003096D01*
X004211Y003080D01*
X004256Y003035D01*
X002359Y003035D01*
X002261Y003133D02*
X004067Y003133D01*
X004034Y003232D02*
X002976Y003232D01*
X002985Y003330D02*
X004034Y003330D01*
X004034Y003523D02*
X003900Y003657D01*
X003781Y003657D01*
X003781Y003610D01*
X003711Y003539D01*
X003257Y003539D01*
X003187Y003610D01*
X003187Y004024D01*
X003257Y004094D01*
X003711Y004094D01*
X003781Y004024D01*
X003781Y003977D01*
X003900Y003977D01*
X004033Y003977D01*
X004034Y003975D01*
X004034Y004368D01*
X004105Y004438D01*
X004598Y004438D01*
X004668Y004368D01*
X004668Y003976D01*
X005011Y003633D01*
X005011Y003500D01*
X005011Y002450D01*
X004968Y002407D01*
X004968Y002035D01*
X004900Y001967D01*
X004968Y001898D01*
X004968Y001859D01*
X005046Y001892D01*
X005156Y001892D01*
X005257Y001850D01*
X005334Y001773D01*
X005376Y001671D01*
X005376Y001562D01*
X005334Y001461D01*
X005257Y001384D01*
X005156Y001342D01*
X005046Y001342D01*
X004968Y001374D01*
X004968Y001366D01*
X004898Y001296D01*
X004405Y001296D01*
X004334Y001366D01*
X004334Y001507D01*
X004181Y001507D01*
X004181Y001460D01*
X004111Y001389D01*
X003657Y001389D01*
X003587Y001460D01*
X003587Y001874D01*
X003657Y001944D01*
X004111Y001944D01*
X004181Y001874D01*
X004181Y001827D01*
X004334Y001827D01*
X004334Y001898D01*
X004403Y001967D01*
X004334Y002035D01*
X004334Y002568D01*
X004405Y002638D01*
X004691Y002638D01*
X004691Y002758D01*
X004687Y002754D01*
X004586Y002712D01*
X004476Y002712D01*
X004375Y002754D01*
X004298Y002831D01*
X004256Y002932D01*
X004256Y003035D01*
X004256Y002936D02*
X003299Y002936D01*
X003322Y002838D02*
X004295Y002838D01*
X004410Y002739D02*
X003322Y002739D01*
X003322Y002641D02*
X004691Y002641D01*
X004691Y002739D02*
X004652Y002739D01*
X005011Y002739D02*
X006107Y002739D01*
X006027Y002838D02*
X005011Y002838D01*
X005011Y002936D02*
X005996Y002936D01*
X005977Y003035D02*
X005011Y003035D01*
X005011Y003133D02*
X005595Y003133D01*
X005581Y003232D02*
X005011Y003232D01*
X005011Y003330D02*
X005581Y003330D01*
X005581Y003429D02*
X005011Y003429D01*
X005011Y003527D02*
X005581Y003527D01*
X005581Y003626D02*
X005011Y003626D01*
X004920Y003725D02*
X005581Y003725D01*
X005581Y003823D02*
X004821Y003823D01*
X004723Y003922D02*
X005581Y003922D01*
X005581Y004020D02*
X004668Y004020D01*
X004668Y004119D02*
X005581Y004119D01*
X005612Y004217D02*
X004668Y004217D01*
X004668Y004316D02*
X006156Y004316D01*
X006156Y004414D02*
X004621Y004414D01*
X004647Y004571D02*
X004717Y004641D01*
X004717Y005292D01*
X004647Y005362D01*
X004191Y005362D01*
X004082Y005471D01*
X004647Y005471D01*
X004717Y005541D01*
X004717Y006192D01*
X004647Y006262D01*
X004191Y006262D01*
X004127Y006327D01*
X003994Y006327D01*
X003922Y006327D01*
X003922Y006413D01*
X003852Y006484D01*
X003320Y006484D01*
X003251Y006415D01*
X003183Y006484D01*
X002650Y006484D01*
X002580Y006413D01*
X002580Y005920D01*
X002650Y005850D01*
X002757Y005850D01*
X002757Y005833D01*
X002757Y005700D01*
X002757Y005684D01*
X002650Y005684D01*
X002580Y005613D01*
X002580Y005120D01*
X002650Y005050D01*
X003183Y005050D01*
X003251Y005118D01*
X003320Y005050D01*
X003852Y005050D01*
X003922Y005120D01*
X003922Y005179D01*
X004004Y005097D01*
X004004Y004641D01*
X004075Y004571D01*
X004647Y004571D01*
X004687Y004611D02*
X005216Y004611D01*
X005186Y004641D02*
X005256Y004571D01*
X005828Y004571D01*
X005898Y004641D01*
X005898Y004807D01*
X005984Y004807D01*
X006217Y005039D01*
X006495Y005039D01*
X006565Y005110D01*
X006565Y005524D01*
X006495Y005594D01*
X006041Y005594D01*
X005971Y005524D01*
X005971Y005246D01*
X005898Y005173D01*
X005898Y005292D01*
X005828Y005362D01*
X005256Y005362D01*
X005186Y005292D01*
X005186Y004641D01*
X005186Y004710D02*
X004717Y004710D01*
X004717Y004809D02*
X005186Y004809D01*
X005186Y004907D02*
X004717Y004907D01*
X004717Y005006D02*
X005186Y005006D01*
X005186Y005104D02*
X004717Y005104D01*
X004717Y005203D02*
X005186Y005203D01*
X005195Y005301D02*
X004708Y005301D01*
X004674Y005498D02*
X005229Y005498D01*
X005256Y005471D02*
X005186Y005541D01*
X005186Y006192D01*
X005256Y006262D01*
X005828Y006262D01*
X005863Y006227D01*
X007521Y006227D01*
X007521Y006324D01*
X007591Y006394D01*
X008045Y006394D01*
X008115Y006324D01*
X008115Y005910D01*
X008045Y005839D01*
X007591Y005839D01*
X007524Y005907D01*
X007411Y005907D01*
X007412Y005906D01*
X007422Y005868D01*
X007422Y005720D01*
X007124Y005720D01*
X007124Y005662D01*
X007422Y005662D01*
X007422Y005514D01*
X007412Y005475D01*
X007392Y005441D01*
X007364Y005413D01*
X007330Y005394D01*
X007292Y005383D01*
X007124Y005383D01*
X007124Y005662D01*
X007066Y005662D01*
X006768Y005662D01*
X006768Y005514D01*
X006778Y005475D01*
X006798Y005441D01*
X006826Y005413D01*
X006860Y005394D01*
X006898Y005383D01*
X007066Y005383D01*
X007066Y005662D01*
X007066Y005720D01*
X006768Y005720D01*
X006768Y005868D01*
X006778Y005906D01*
X006778Y005907D01*
X005898Y005907D01*
X005898Y005541D01*
X005828Y005471D01*
X005256Y005471D01*
X005186Y005597D02*
X004717Y005597D01*
X004717Y005695D02*
X005186Y005695D01*
X005186Y005794D02*
X004717Y005794D01*
X004717Y005892D02*
X005186Y005892D01*
X005186Y005991D02*
X004717Y005991D01*
X004717Y006090D02*
X005186Y006090D01*
X005186Y006188D02*
X004717Y006188D01*
X004167Y006287D02*
X007521Y006287D01*
X007582Y006385D02*
X006720Y006385D01*
X006753Y006484D02*
X008616Y006484D01*
X008616Y006462D02*
X008318Y006462D01*
X008318Y006314D01*
X008328Y006275D01*
X008348Y006241D01*
X008376Y006213D01*
X008410Y006194D01*
X008448Y006183D01*
X008616Y006183D01*
X008616Y006462D01*
X008616Y006520D01*
X008616Y006798D01*
X008448Y006798D01*
X008410Y006788D01*
X008376Y006768D01*
X008348Y006740D01*
X008328Y006706D01*
X008318Y006668D01*
X008318Y006520D01*
X008616Y006520D01*
X008674Y006520D01*
X008674Y006798D01*
X008842Y006798D01*
X008880Y006788D01*
X008914Y006768D01*
X008942Y006740D01*
X008962Y006706D01*
X008972Y006668D01*
X008972Y006520D01*
X008674Y006520D01*
X008674Y006462D01*
X008972Y006462D01*
X008972Y006314D01*
X008962Y006275D01*
X008942Y006241D01*
X008914Y006213D01*
X008880Y006194D01*
X008842Y006183D01*
X008674Y006183D01*
X008674Y006462D01*
X008616Y006462D01*
X008674Y006484D02*
X009449Y006484D01*
X009373Y006385D02*
X008972Y006385D01*
X008965Y006287D02*
X009346Y006287D01*
X009356Y006188D02*
X008860Y006188D01*
X008674Y006188D02*
X008616Y006188D01*
X008616Y006287D02*
X008674Y006287D01*
X008674Y006385D02*
X008616Y006385D01*
X008318Y006385D02*
X008054Y006385D01*
X008115Y006287D02*
X008325Y006287D01*
X008430Y006188D02*
X008115Y006188D01*
X008115Y006090D02*
X009409Y006090D01*
X009577Y005991D02*
X008901Y005991D01*
X008942Y005892D02*
X009478Y005892D01*
X009380Y005794D02*
X008942Y005794D01*
X008942Y005695D02*
X009281Y005695D01*
X009183Y005597D02*
X008942Y005597D01*
X008905Y005498D02*
X009084Y005498D01*
X008986Y005400D02*
X008710Y005400D01*
X008612Y005301D02*
X008887Y005301D01*
X008789Y005203D02*
X008513Y005203D01*
X008415Y005104D02*
X008690Y005104D01*
X008591Y005006D02*
X008316Y005006D01*
X008311Y004907D02*
X008579Y004907D01*
X008663Y004809D02*
X008386Y004809D01*
X008484Y004710D02*
X008762Y004710D01*
X008745Y004611D02*
X008860Y004611D01*
X008809Y004513D02*
X008959Y004513D01*
X008873Y004414D02*
X008826Y004414D01*
X008362Y004217D02*
X008090Y004217D01*
X008121Y004119D02*
X008577Y004119D01*
X008478Y004020D02*
X008121Y004020D01*
X008121Y003922D02*
X008380Y003922D01*
X008281Y003823D02*
X008121Y003823D01*
X008121Y003725D02*
X008147Y003725D01*
X007612Y004217D02*
X007590Y004217D01*
X007206Y004316D02*
X008295Y004316D01*
X008276Y004414D02*
X007206Y004414D01*
X007168Y004513D02*
X008229Y004513D01*
X008130Y004611D02*
X007059Y004611D01*
X006868Y004665D02*
X006798Y004736D01*
X006798Y005150D01*
X006868Y005220D01*
X007322Y005220D01*
X007378Y005164D01*
X007446Y005192D01*
X007556Y005192D01*
X007657Y005150D01*
X007734Y005073D01*
X007776Y004971D01*
X007776Y004862D01*
X007734Y004761D01*
X007657Y004684D01*
X007556Y004642D01*
X007446Y004642D01*
X007345Y004684D01*
X007343Y004686D01*
X007322Y004665D01*
X006868Y004665D01*
X006823Y004710D02*
X005898Y004710D01*
X005868Y004611D02*
X006303Y004611D01*
X006194Y004513D02*
X002318Y004513D01*
X002318Y004611D02*
X004034Y004611D01*
X004004Y004710D02*
X002318Y004710D01*
X002318Y004809D02*
X004004Y004809D01*
X004004Y004907D02*
X002318Y004907D01*
X002318Y004918D02*
X002248Y004988D01*
X001894Y004988D01*
X001894Y005289D01*
X001961Y005289D01*
X002031Y005360D01*
X002031Y005774D01*
X001961Y005844D01*
X001735Y005844D01*
X001735Y006176D01*
X001782Y006176D01*
X001853Y006246D01*
X001853Y006700D01*
X001782Y006770D01*
X001735Y006770D01*
X001735Y006959D01*
X001976Y007200D01*
X002333Y007200D01*
X002401Y007268D01*
X002470Y007200D01*
X002541Y007200D01*
X002541Y007196D01*
X002468Y007123D01*
X002426Y007021D01*
X002426Y006912D01*
X002468Y006811D01*
X002545Y006734D01*
X002646Y006692D01*
X002756Y006692D01*
X002857Y006734D01*
X002934Y006811D01*
X002976Y006912D01*
X002976Y007021D01*
X002956Y007071D01*
X003020Y007007D01*
X003123Y007007D01*
X003123Y006920D01*
X003193Y006850D01*
X003843Y006850D01*
X003914Y006920D01*
X003914Y007413D01*
X003843Y007484D01*
X003193Y007484D01*
X003123Y007413D01*
X003123Y007356D01*
X003072Y007406D01*
X003072Y007763D01*
X003002Y007834D01*
X002470Y007834D01*
X002401Y007765D01*
X002333Y007834D01*
X001800Y007834D01*
X001730Y007763D01*
X001730Y007406D01*
X001479Y007155D01*
X001479Y007527D01*
X001408Y007597D01*
X000994Y007597D01*
X000924Y007527D01*
X000924Y007073D01*
X000994Y007003D01*
X001408Y007003D01*
X001415Y007010D01*
X001415Y006959D01*
X001415Y006770D01*
X001368Y006770D01*
X001298Y006700D01*
X001298Y006246D01*
X001368Y006176D01*
X001415Y006176D01*
X001415Y005792D01*
X001415Y005660D01*
X001437Y005638D01*
X001437Y005360D01*
X001507Y005289D01*
X001574Y005289D01*
X001574Y004985D01*
X001574Y004852D01*
X001684Y004742D01*
X001684Y004385D01*
X001753Y004317D01*
X001684Y004248D01*
X001684Y003716D01*
X001755Y003646D01*
X002248Y003646D01*
X002318Y003716D01*
X002318Y003822D01*
X002383Y003822D01*
X002515Y003822D01*
X002606Y003913D01*
X002884Y003913D01*
X002955Y003984D01*
X002955Y004398D01*
X002884Y004468D01*
X002431Y004468D01*
X002360Y004398D01*
X002360Y004142D01*
X002318Y004142D01*
X002318Y004248D01*
X002250Y004317D01*
X002318Y004385D01*
X002318Y004918D01*
X002596Y005104D02*
X001894Y005104D01*
X001894Y005006D02*
X004004Y005006D01*
X003997Y005104D02*
X003906Y005104D01*
X004154Y005400D02*
X005971Y005400D01*
X005971Y005498D02*
X005855Y005498D01*
X005898Y005597D02*
X006768Y005597D01*
X006772Y005498D02*
X006565Y005498D01*
X006565Y005400D02*
X006849Y005400D01*
X007066Y005400D02*
X007124Y005400D01*
X007124Y005498D02*
X007066Y005498D01*
X007066Y005597D02*
X007124Y005597D01*
X007124Y005695D02*
X008348Y005695D01*
X008348Y005597D02*
X007422Y005597D01*
X007418Y005498D02*
X008356Y005498D01*
X008258Y005400D02*
X007341Y005400D01*
X007339Y005203D02*
X008061Y005203D01*
X007991Y005104D02*
X007703Y005104D01*
X007762Y005006D02*
X007991Y005006D01*
X007991Y004907D02*
X007776Y004907D01*
X007754Y004809D02*
X007991Y004809D01*
X008032Y004710D02*
X007683Y004710D01*
X006803Y004611D02*
X006559Y004611D01*
X006668Y004513D02*
X006694Y004513D01*
X006798Y004809D02*
X005986Y004809D01*
X006085Y004907D02*
X006798Y004907D01*
X006798Y005006D02*
X006183Y005006D01*
X005928Y005203D02*
X005898Y005203D01*
X005889Y005301D02*
X005971Y005301D01*
X005898Y005695D02*
X007066Y005695D01*
X006768Y005794D02*
X005898Y005794D01*
X005898Y005892D02*
X006774Y005892D01*
X007415Y005892D02*
X007538Y005892D01*
X007422Y005794D02*
X008348Y005794D01*
X008348Y005892D02*
X008098Y005892D01*
X008115Y005991D02*
X008389Y005991D01*
X008318Y006582D02*
X007912Y006582D01*
X007916Y006681D02*
X008321Y006681D01*
X008395Y006779D02*
X007916Y006779D01*
X007916Y006878D02*
X009801Y006878D01*
X009758Y006779D02*
X008895Y006779D01*
X008969Y006681D02*
X009653Y006681D01*
X009616Y006582D02*
X008972Y006582D01*
X008674Y006582D02*
X008616Y006582D01*
X008616Y006681D02*
X008674Y006681D01*
X008674Y006779D02*
X008616Y006779D01*
X007916Y006976D02*
X009875Y006976D01*
X009964Y007075D02*
X007916Y007075D01*
X007916Y007174D02*
X009973Y007174D01*
X009973Y007469D02*
X008438Y007469D01*
X008476Y007568D02*
X009973Y007568D01*
X009973Y007666D02*
X008534Y007666D01*
X008632Y007765D02*
X009973Y007765D01*
X009973Y007863D02*
X008731Y007863D01*
X008362Y008060D02*
X007701Y008060D01*
X007901Y007962D02*
X008264Y007962D01*
X008078Y007863D02*
X007916Y007863D01*
X007916Y007765D02*
X007965Y007765D01*
X007926Y007666D02*
X007916Y007666D01*
X007916Y007568D02*
X007926Y007568D01*
X007916Y007469D02*
X007965Y007469D01*
X007916Y007371D02*
X008077Y007371D01*
X007853Y007272D02*
X011186Y007272D01*
X011283Y007272D02*
X011758Y007272D01*
X011749Y007371D02*
X011660Y007371D01*
X011660Y007469D02*
X011734Y007469D01*
X011734Y007568D02*
X011651Y007568D01*
X012300Y007317D02*
X012368Y007385D01*
X012368Y007541D01*
X013100Y007541D01*
X013282Y007359D01*
X013161Y007359D01*
X013122Y007349D01*
X013088Y007329D01*
X013060Y007301D01*
X013041Y007267D01*
X013030Y007229D01*
X013030Y006982D01*
X013328Y006982D01*
X013328Y006885D01*
X013030Y006885D01*
X013030Y006638D01*
X013031Y006637D01*
X012920Y006637D01*
X012857Y006700D01*
X012756Y006742D01*
X012646Y006742D01*
X012545Y006700D01*
X012468Y006623D01*
X012429Y006528D01*
X012407Y006550D01*
X012306Y006592D01*
X012211Y006592D01*
X012211Y006646D01*
X012298Y006646D01*
X012368Y006716D01*
X012368Y007248D01*
X012300Y007317D01*
X012344Y007272D02*
X013043Y007272D01*
X013030Y007174D02*
X012368Y007174D01*
X012368Y007075D02*
X013030Y007075D01*
X013030Y006878D02*
X012368Y006878D01*
X012368Y006976D02*
X013328Y006976D01*
X013426Y006976D02*
X013808Y006976D01*
X013724Y006982D02*
X013724Y007207D01*
X013808Y007207D01*
X013808Y006608D01*
X013879Y006538D01*
X014038Y006538D01*
X014077Y006500D01*
X014077Y006387D01*
X014046Y006387D01*
X014022Y006387D01*
X013772Y006637D01*
X013724Y006637D01*
X013724Y006638D01*
X013724Y006885D01*
X013426Y006885D01*
X013426Y006982D01*
X013724Y006982D01*
X013724Y007075D02*
X013808Y007075D01*
X013808Y007174D02*
X013724Y007174D01*
X013271Y007371D02*
X012353Y007371D01*
X012368Y007469D02*
X013172Y007469D01*
X013724Y006878D02*
X013808Y006878D01*
X013808Y006779D02*
X013724Y006779D01*
X013724Y006681D02*
X013808Y006681D01*
X013826Y006582D02*
X013834Y006582D01*
X013925Y006484D02*
X014077Y006484D01*
X013951Y006217D02*
X013701Y006467D01*
X012701Y006467D01*
X012451Y006582D02*
X012329Y006582D01*
X012333Y006681D02*
X012526Y006681D01*
X012368Y006779D02*
X013030Y006779D01*
X013030Y006681D02*
X012876Y006681D01*
X011956Y006385D02*
X011838Y006385D01*
X011891Y006484D02*
X011740Y006484D01*
X011641Y006582D02*
X011891Y006582D01*
X011769Y006681D02*
X010748Y006681D01*
X010764Y006779D02*
X011734Y006779D01*
X011734Y006878D02*
X010764Y006878D01*
X010764Y006976D02*
X010915Y006976D01*
X010815Y007075D02*
X010764Y007075D01*
X010764Y007174D02*
X010809Y007174D01*
X010809Y007371D02*
X008326Y007371D01*
X007154Y007267D02*
X007086Y007198D01*
X007086Y006905D01*
X006753Y006905D01*
X006753Y006991D01*
X006683Y007061D01*
X006605Y007061D01*
X006626Y007112D01*
X006626Y007221D01*
X006584Y007323D01*
X006564Y007342D01*
X006653Y007342D01*
X006691Y007353D01*
X006726Y007372D01*
X006753Y007400D01*
X006773Y007434D01*
X006783Y007473D01*
X006783Y007724D01*
X006530Y007724D01*
X006530Y007733D01*
X006783Y007733D01*
X006783Y007917D01*
X007086Y007917D01*
X007086Y007335D01*
X007154Y007267D01*
X007149Y007272D02*
X006605Y007272D01*
X006626Y007174D02*
X007086Y007174D01*
X007086Y007075D02*
X006611Y007075D01*
X006753Y006976D02*
X007086Y006976D01*
X007086Y007371D02*
X006723Y007371D01*
X006782Y007469D02*
X007086Y007469D01*
X007086Y007568D02*
X006783Y007568D01*
X006783Y007666D02*
X007086Y007666D01*
X007086Y007765D02*
X006783Y007765D01*
X006783Y007863D02*
X007086Y007863D01*
X005549Y007863D02*
X005499Y007863D01*
X005516Y007765D02*
X005549Y007765D01*
X005549Y007666D02*
X005516Y007666D01*
X005516Y007568D02*
X005549Y007568D01*
X005549Y007469D02*
X005516Y007469D01*
X004703Y007863D02*
X000401Y007863D01*
X000401Y007765D02*
X001731Y007765D01*
X001730Y007666D02*
X000401Y007666D01*
X000401Y007568D02*
X000965Y007568D01*
X000924Y007469D02*
X000401Y007469D01*
X000401Y007371D02*
X000924Y007371D01*
X000924Y007272D02*
X000401Y007272D01*
X000401Y007174D02*
X000924Y007174D01*
X000924Y007075D02*
X000401Y007075D01*
X000401Y006976D02*
X001415Y006976D01*
X001415Y006878D02*
X000401Y006878D01*
X000401Y006779D02*
X001415Y006779D01*
X001298Y006681D02*
X001105Y006681D01*
X001105Y006700D02*
X001034Y006770D01*
X000620Y006770D01*
X000550Y006700D01*
X000550Y006246D01*
X000620Y006176D01*
X000638Y006176D01*
X000610Y006148D01*
X000610Y005734D01*
X000681Y005663D01*
X001134Y005663D01*
X001205Y005734D01*
X001205Y006148D01*
X001134Y006218D01*
X001077Y006218D01*
X001105Y006246D01*
X001105Y006700D01*
X001105Y006582D02*
X001298Y006582D01*
X001298Y006484D02*
X001105Y006484D01*
X001105Y006385D02*
X001298Y006385D01*
X001298Y006287D02*
X001105Y006287D01*
X001164Y006188D02*
X001356Y006188D01*
X001415Y006090D02*
X001205Y006090D01*
X001205Y005991D02*
X001415Y005991D01*
X001415Y005892D02*
X001205Y005892D01*
X001205Y005794D02*
X001415Y005794D01*
X001415Y005695D02*
X001166Y005695D01*
X001111Y005498D02*
X001437Y005498D01*
X001437Y005400D02*
X001227Y005400D01*
X001224Y005408D02*
X001205Y005442D01*
X001177Y005470D01*
X001143Y005490D01*
X001104Y005500D01*
X000936Y005500D01*
X000936Y005222D01*
X000879Y005222D01*
X000879Y005500D01*
X000711Y005500D01*
X000672Y005490D01*
X000638Y005470D01*
X000610Y005442D01*
X000591Y005408D01*
X000580Y005370D01*
X000580Y005221D01*
X000878Y005221D01*
X000878Y005164D01*
X000580Y005164D01*
X000580Y005016D01*
X000591Y004977D01*
X000610Y004943D01*
X000638Y004915D01*
X000672Y004896D01*
X000711Y004885D01*
X000879Y004885D01*
X000879Y005164D01*
X000936Y005164D01*
X000936Y004885D01*
X001104Y004885D01*
X001143Y004896D01*
X001177Y004915D01*
X001205Y004943D01*
X001224Y004977D01*
X001235Y005016D01*
X001235Y005164D01*
X000936Y005164D01*
X000936Y005221D01*
X001235Y005221D01*
X001235Y005370D01*
X001224Y005408D01*
X001235Y005301D02*
X001495Y005301D01*
X001574Y005203D02*
X000936Y005203D01*
X000878Y005203D02*
X000401Y005203D01*
X000401Y005301D02*
X000580Y005301D01*
X000588Y005400D02*
X000401Y005400D01*
X000401Y005498D02*
X000704Y005498D01*
X000879Y005498D02*
X000936Y005498D01*
X000936Y005400D02*
X000879Y005400D01*
X000879Y005301D02*
X000936Y005301D01*
X000936Y005104D02*
X000879Y005104D01*
X000879Y005006D02*
X000936Y005006D01*
X000936Y004907D02*
X000879Y004907D01*
X000875Y004809D02*
X000786Y004809D01*
X000652Y004907D02*
X000401Y004907D01*
X000401Y004809D02*
X000516Y004809D01*
X000413Y004710D02*
X000401Y004710D01*
X000401Y005006D02*
X000583Y005006D01*
X000580Y005104D02*
X000401Y005104D01*
X001163Y004907D02*
X001574Y004907D01*
X001574Y005006D02*
X001232Y005006D01*
X001235Y005104D02*
X001574Y005104D01*
X001894Y005203D02*
X002580Y005203D01*
X002580Y005301D02*
X001973Y005301D01*
X002031Y005400D02*
X002580Y005400D01*
X002580Y005498D02*
X002031Y005498D01*
X002031Y005597D02*
X002580Y005597D01*
X002757Y005695D02*
X002031Y005695D01*
X002011Y005794D02*
X002757Y005794D01*
X002608Y005892D02*
X001735Y005892D01*
X001735Y005991D02*
X002580Y005991D01*
X002580Y006090D02*
X001735Y006090D01*
X001795Y006188D02*
X002580Y006188D01*
X002580Y006287D02*
X001853Y006287D01*
X001853Y006385D02*
X002580Y006385D01*
X001853Y006484D02*
X004051Y006484D01*
X003989Y006582D02*
X001853Y006582D01*
X001853Y006681D02*
X003989Y006681D01*
X003989Y006779D02*
X002903Y006779D01*
X002962Y006878D02*
X003165Y006878D01*
X003123Y006976D02*
X002976Y006976D01*
X002519Y007174D02*
X001950Y007174D01*
X001851Y007075D02*
X002448Y007075D01*
X002426Y006976D02*
X001752Y006976D01*
X001735Y006878D02*
X002440Y006878D01*
X002500Y006779D02*
X001735Y006779D01*
X001497Y007174D02*
X001479Y007174D01*
X001479Y007272D02*
X001596Y007272D01*
X001694Y007371D02*
X001479Y007371D01*
X001479Y007469D02*
X001730Y007469D01*
X001730Y007568D02*
X001438Y007568D01*
X000401Y007962D02*
X005549Y007962D01*
X005551Y008060D02*
X000401Y008060D01*
X003071Y007765D02*
X003989Y007765D01*
X003989Y007666D02*
X003072Y007666D01*
X003072Y007568D02*
X003989Y007568D01*
X003989Y007469D02*
X003858Y007469D01*
X003914Y007371D02*
X003989Y007371D01*
X004011Y007272D02*
X003914Y007272D01*
X003914Y007174D02*
X004482Y007174D01*
X004024Y007075D02*
X003914Y007075D01*
X003914Y006976D02*
X003989Y006976D01*
X003989Y006878D02*
X003871Y006878D01*
X005051Y006681D02*
X005151Y006681D01*
X005151Y006779D02*
X005549Y006779D01*
X005546Y006681D02*
X005549Y006681D01*
X005546Y006582D02*
X005549Y006582D01*
X005537Y006484D02*
X005549Y006484D01*
X005583Y006385D02*
X003922Y006385D01*
X005051Y006484D02*
X005151Y006484D01*
X005151Y006582D02*
X005051Y006582D01*
X005546Y006878D02*
X005549Y006878D01*
X005546Y006976D02*
X005549Y006976D01*
X006147Y006681D02*
X006155Y006681D01*
X006147Y006582D02*
X006155Y006582D01*
X006147Y006484D02*
X006155Y006484D01*
X006147Y006385D02*
X006155Y006385D01*
X006565Y005301D02*
X008159Y005301D01*
X006850Y005203D02*
X006565Y005203D01*
X006560Y005104D02*
X006798Y005104D01*
X006112Y004217D02*
X006090Y004217D01*
X004081Y004414D02*
X002938Y004414D01*
X002955Y004316D02*
X004034Y004316D01*
X004034Y004217D02*
X002955Y004217D01*
X002955Y004119D02*
X004034Y004119D01*
X004034Y004020D02*
X003781Y004020D01*
X003187Y004020D02*
X002955Y004020D01*
X002893Y003922D02*
X003187Y003922D01*
X003187Y003823D02*
X002516Y003823D01*
X002629Y003725D02*
X002686Y003725D01*
X002686Y003626D02*
X002629Y003626D01*
X002629Y003527D02*
X002686Y003527D01*
X002985Y003527D02*
X004030Y003527D01*
X003931Y003626D02*
X003781Y003626D01*
X003187Y003626D02*
X002983Y003626D01*
X002919Y003725D02*
X003187Y003725D01*
X002686Y003330D02*
X002629Y003330D01*
X002629Y003232D02*
X002686Y003232D01*
X002672Y002936D02*
X002630Y002936D01*
X003322Y002542D02*
X004334Y002542D01*
X004334Y002443D02*
X003322Y002443D01*
X003146Y002345D02*
X004334Y002345D01*
X004334Y002246D02*
X003355Y002246D01*
X003355Y002148D02*
X004334Y002148D01*
X004334Y002049D02*
X003355Y002049D01*
X003355Y001951D02*
X004387Y001951D01*
X004334Y001852D02*
X004181Y001852D01*
X004180Y001458D02*
X004334Y001458D01*
X004341Y001359D02*
X003385Y001359D01*
X003385Y001261D02*
X005581Y001261D01*
X005581Y001359D02*
X005199Y001359D01*
X005331Y001458D02*
X005581Y001458D01*
X005581Y001557D02*
X005374Y001557D01*
X005376Y001655D02*
X005581Y001655D01*
X005581Y001754D02*
X005342Y001754D01*
X005251Y001852D02*
X005581Y001852D01*
X005581Y001951D02*
X004916Y001951D01*
X004968Y002049D02*
X005581Y002049D01*
X005581Y002148D02*
X004968Y002148D01*
X004968Y002246D02*
X005641Y002246D01*
X005721Y002345D02*
X004968Y002345D01*
X005004Y002443D02*
X005812Y002443D01*
X005910Y002542D02*
X005011Y002542D01*
X005011Y002641D02*
X006009Y002641D01*
X006264Y002443D02*
X008250Y002443D01*
X008250Y002415D02*
X008568Y002415D01*
X008568Y002318D01*
X008250Y002318D01*
X008250Y002150D01*
X008260Y002112D01*
X008280Y002078D01*
X008308Y002050D01*
X008342Y002030D01*
X008380Y002020D01*
X008474Y002020D01*
X008474Y001696D01*
X008753Y001696D01*
X008753Y001638D01*
X008474Y001638D01*
X008474Y001312D01*
X008485Y001274D01*
X008504Y001240D01*
X008532Y001212D01*
X008566Y001192D01*
X008605Y001182D01*
X008753Y001182D01*
X008753Y001638D01*
X008811Y001638D01*
X008811Y001696D01*
X009089Y001696D01*
X009089Y002021D01*
X009082Y002050D01*
X009552Y002050D01*
X009567Y002064D01*
X009568Y002061D01*
X009645Y001984D01*
X009746Y001942D01*
X009843Y001942D01*
X009843Y001282D01*
X009913Y001212D01*
X010328Y001212D01*
X010398Y001282D01*
X010398Y001718D01*
X010537Y001857D01*
X010785Y001857D01*
X010835Y001807D01*
X011535Y001807D01*
X011667Y001807D01*
X011884Y002024D01*
X011884Y001685D01*
X011937Y001633D01*
X011912Y001619D01*
X011884Y001591D01*
X011865Y001557D01*
X010398Y001557D01*
X010398Y001655D02*
X011914Y001655D01*
X011884Y001754D02*
X010434Y001754D01*
X010532Y001852D02*
X010789Y001852D01*
X010785Y002177D02*
X010514Y002177D01*
X010837Y002499D01*
X010837Y002598D01*
X010698Y002738D01*
X010558Y002878D01*
X010419Y003017D01*
X010418Y003017D01*
X010323Y003112D01*
X010818Y003607D01*
X011285Y003607D01*
X011835Y003607D01*
X011908Y003534D01*
X011808Y003434D01*
X011699Y003325D01*
X011661Y003315D01*
X011627Y003295D01*
X011578Y003247D01*
X011893Y002932D01*
X011893Y002932D01*
X011578Y003246D01*
X011529Y003198D01*
X011510Y003163D01*
X011499Y003125D01*
X011434Y003060D01*
X011421Y003073D01*
X011401Y003093D01*
X011307Y003187D01*
X011120Y003187D01*
X011047Y003260D01*
X010946Y003302D01*
X010836Y003302D01*
X010735Y003260D01*
X010658Y003183D01*
X010616Y003081D01*
X010616Y002972D01*
X010658Y002871D01*
X010735Y002794D01*
X010836Y002752D01*
X010946Y002752D01*
X011047Y002794D01*
X011120Y002867D01*
X011175Y002867D01*
X011195Y002847D01*
X011208Y002834D01*
X011112Y002738D01*
X011112Y002738D01*
X010973Y002598D01*
X010973Y002499D01*
X011345Y002127D01*
X010967Y002127D01*
X010917Y002177D01*
X010785Y002177D01*
X010946Y002148D02*
X011324Y002148D01*
X011225Y002246D02*
X010584Y002246D01*
X010683Y002345D02*
X011127Y002345D01*
X011028Y002443D02*
X010781Y002443D01*
X010837Y002542D02*
X010973Y002542D01*
X011015Y002641D02*
X010795Y002641D01*
X010698Y002738D02*
X010698Y002738D01*
X010696Y002739D02*
X011113Y002739D01*
X011091Y002838D02*
X011204Y002838D01*
X011195Y002847D02*
X011195Y002847D01*
X011421Y003073D02*
X011421Y003073D01*
X011361Y003133D02*
X011502Y003133D01*
X011499Y003125D02*
X011499Y003125D01*
X011564Y003232D02*
X011075Y003232D01*
X010707Y003232D02*
X010443Y003232D01*
X010541Y003330D02*
X011705Y003330D01*
X011699Y003325D02*
X011699Y003325D01*
X011592Y003232D02*
X011593Y003232D01*
X011691Y003133D02*
X011692Y003133D01*
X011790Y003035D02*
X011790Y003035D01*
X011888Y002936D02*
X011889Y002936D01*
X011893Y002931D02*
X012208Y002617D01*
X012234Y002643D01*
X012241Y002636D01*
X012241Y002533D01*
X012211Y002503D01*
X012211Y002583D01*
X012193Y002602D01*
X012208Y002617D01*
X011893Y002931D01*
X011893Y002931D01*
X011987Y002838D02*
X011987Y002838D01*
X012085Y002739D02*
X012086Y002739D01*
X012184Y002641D02*
X012184Y002641D01*
X012232Y002641D02*
X012236Y002641D01*
X012241Y002542D02*
X012211Y002542D01*
X012859Y003035D02*
X013051Y003035D01*
X013094Y003133D02*
X012761Y003133D01*
X012780Y003232D02*
X013061Y003232D01*
X013125Y003330D02*
X012879Y003330D01*
X012978Y003429D02*
X013224Y003429D01*
X013322Y003527D02*
X013076Y003527D01*
X013175Y003626D02*
X013421Y003626D01*
X013508Y003725D02*
X013231Y003725D01*
X013190Y003823D02*
X013576Y003823D01*
X013758Y003823D02*
X013895Y003823D01*
X013946Y003772D02*
X014171Y003997D01*
X014068Y004100D01*
X014183Y004100D01*
X014251Y004168D01*
X014320Y004100D01*
X014852Y004100D01*
X014922Y004170D01*
X014922Y004257D01*
X015170Y004257D01*
X015250Y004176D01*
X015250Y003937D01*
X015320Y003867D01*
X016207Y003867D01*
X016277Y003937D01*
X016277Y004509D01*
X016207Y004579D01*
X015320Y004579D01*
X015310Y004569D01*
X015302Y004577D01*
X015170Y004577D01*
X014922Y004577D01*
X014922Y004663D01*
X014869Y004717D01*
X014922Y004770D01*
X014922Y004850D01*
X015250Y004850D01*
X015250Y004725D01*
X015320Y004654D01*
X016207Y004654D01*
X016277Y004725D01*
X016277Y005296D01*
X016207Y005367D01*
X016037Y005367D01*
X016076Y005462D01*
X016076Y005571D01*
X016048Y005639D01*
X016207Y005639D01*
X016277Y005709D01*
X016277Y006281D01*
X016207Y006351D01*
X015964Y006351D01*
X015964Y007471D01*
X015964Y007637D01*
X015951Y007650D01*
X015951Y007750D01*
X015851Y007850D01*
X015734Y007967D01*
X015266Y007967D01*
X015266Y008046D01*
X015216Y008097D01*
X017601Y008097D01*
X017601Y001117D01*
X015598Y001117D01*
X015598Y001284D01*
X015300Y001284D01*
X015300Y001381D01*
X015598Y001381D01*
X015598Y001568D01*
X015588Y001607D01*
X015568Y001641D01*
X015540Y001669D01*
X015516Y001683D01*
X015568Y001735D01*
X015568Y002268D01*
X015498Y002338D01*
X015197Y002338D01*
X015016Y002519D01*
X014850Y002519D01*
X014834Y002519D01*
X014834Y002625D01*
X014764Y002695D01*
X014035Y002695D01*
X013964Y002625D01*
X013964Y002479D01*
X013765Y002479D01*
X013461Y002783D01*
X013426Y002818D01*
X013509Y002818D01*
X013885Y003194D01*
X013885Y003268D01*
X013913Y003261D01*
X013952Y003261D01*
X013990Y003271D01*
X014025Y003291D01*
X014157Y003424D01*
X013946Y003635D01*
X014015Y003703D01*
X014226Y003492D01*
X014359Y003625D01*
X014378Y003659D01*
X014389Y003698D01*
X014389Y003737D01*
X014378Y003775D01*
X014359Y003809D01*
X014240Y003928D01*
X014015Y003703D01*
X013946Y003772D01*
X013899Y003725D02*
X013857Y003725D01*
X013994Y003725D02*
X014036Y003725D01*
X013997Y003823D02*
X014135Y003823D01*
X014096Y003922D02*
X014233Y003922D01*
X014246Y003922D02*
X015266Y003922D01*
X015250Y004020D02*
X014148Y004020D01*
X014202Y004119D02*
X014301Y004119D01*
X013773Y004020D02*
X012992Y004020D01*
X012894Y004119D02*
X013631Y004119D01*
X013580Y004217D02*
X012795Y004217D01*
X012591Y004217D02*
X012417Y004217D01*
X012493Y004119D02*
X011761Y004119D01*
X011761Y004217D02*
X012185Y004217D01*
X012066Y004316D02*
X011761Y004316D01*
X011761Y004414D02*
X012026Y004414D01*
X012026Y004513D02*
X011761Y004513D01*
X011761Y004611D02*
X012063Y004611D01*
X012170Y004710D02*
X011761Y004710D01*
X011832Y004809D02*
X012241Y004809D01*
X012142Y004907D02*
X011874Y004907D01*
X011876Y005006D02*
X012043Y005006D01*
X011945Y005104D02*
X011842Y005104D01*
X011846Y005203D02*
X011750Y005203D01*
X011748Y005301D02*
X010552Y005301D01*
X010556Y005400D02*
X011649Y005400D01*
X011551Y005498D02*
X010524Y005498D01*
X010440Y005597D02*
X011452Y005597D01*
X011354Y005695D02*
X010456Y005695D01*
X010554Y005794D02*
X011255Y005794D01*
X011157Y005892D02*
X010653Y005892D01*
X010751Y005991D02*
X011058Y005991D01*
X010973Y006090D02*
X010837Y006090D01*
X010824Y006188D02*
X010985Y006188D01*
X011084Y006287D02*
X010726Y006287D01*
X010627Y006385D02*
X011182Y006385D01*
X011281Y006484D02*
X010529Y006484D01*
X010430Y006582D02*
X011379Y006582D01*
X011937Y006287D02*
X011976Y006287D01*
X011734Y006976D02*
X011554Y006976D01*
X011653Y007075D02*
X011734Y007075D01*
X011734Y007174D02*
X011660Y007174D01*
X011283Y007174D02*
X011186Y007174D01*
X011186Y007075D02*
X011283Y007075D01*
X011283Y006976D02*
X011186Y006976D01*
X010809Y007469D02*
X010764Y007469D01*
X010778Y007568D02*
X010818Y007568D01*
X013951Y006217D02*
X014117Y006217D01*
X014317Y006017D01*
X014556Y006134D02*
X014556Y006587D01*
X014801Y006587D01*
X014801Y006943D01*
X014901Y006943D01*
X014901Y007043D01*
X015296Y007043D01*
X015296Y007268D01*
X015286Y007307D01*
X015266Y007341D01*
X015239Y007369D01*
X015214Y007383D01*
X015266Y007435D01*
X015266Y007567D01*
X015551Y007567D01*
X015551Y007484D01*
X015564Y007471D01*
X015564Y006351D01*
X015320Y006351D01*
X015250Y006281D01*
X015250Y006156D01*
X015222Y006164D01*
X015034Y006164D01*
X015034Y005865D01*
X014937Y005865D01*
X014937Y006164D01*
X014750Y006164D01*
X014711Y006153D01*
X014677Y006134D01*
X014649Y006106D01*
X014635Y006081D01*
X014583Y006134D01*
X014556Y006134D01*
X014556Y006188D02*
X015250Y006188D01*
X015256Y006287D02*
X014556Y006287D01*
X014556Y006385D02*
X015564Y006385D01*
X015564Y006484D02*
X014556Y006484D01*
X014556Y006582D02*
X015564Y006582D01*
X015564Y006681D02*
X015287Y006681D01*
X015286Y006679D02*
X015296Y006717D01*
X015296Y006943D01*
X014901Y006943D01*
X014901Y006587D01*
X015166Y006587D01*
X015204Y006597D01*
X015239Y006617D01*
X015266Y006645D01*
X015286Y006679D01*
X015296Y006779D02*
X015564Y006779D01*
X015564Y006878D02*
X015296Y006878D01*
X015564Y006976D02*
X014901Y006976D01*
X014901Y006878D02*
X014801Y006878D01*
X014801Y006779D02*
X014901Y006779D01*
X014901Y006681D02*
X014801Y006681D01*
X015296Y007075D02*
X015564Y007075D01*
X015564Y007174D02*
X015296Y007174D01*
X015295Y007272D02*
X015564Y007272D01*
X015564Y007371D02*
X015235Y007371D01*
X015266Y007469D02*
X015564Y007469D01*
X015964Y007469D02*
X017601Y007469D01*
X017601Y007371D02*
X015964Y007371D01*
X015964Y007272D02*
X016360Y007272D01*
X016370Y007276D02*
X016218Y007213D01*
X016101Y007096D01*
X016037Y006943D01*
X016037Y006778D01*
X016101Y006626D01*
X016218Y006509D01*
X016370Y006446D01*
X017126Y006446D01*
X017279Y006509D01*
X017395Y006626D01*
X017459Y006778D01*
X017459Y006943D01*
X017395Y007096D01*
X017279Y007213D01*
X017126Y007276D01*
X016370Y007276D01*
X016178Y007174D02*
X015964Y007174D01*
X015964Y007075D02*
X016092Y007075D01*
X016051Y006976D02*
X015964Y006976D01*
X015964Y006878D02*
X016037Y006878D01*
X016037Y006779D02*
X015964Y006779D01*
X015964Y006681D02*
X016078Y006681D01*
X016144Y006582D02*
X015964Y006582D01*
X015964Y006484D02*
X016278Y006484D01*
X015964Y006385D02*
X017601Y006385D01*
X017601Y006287D02*
X016271Y006287D01*
X016277Y006188D02*
X017601Y006188D01*
X017601Y006090D02*
X016277Y006090D01*
X016277Y005991D02*
X017601Y005991D01*
X017601Y005892D02*
X017057Y005892D01*
X017052Y005898D02*
X016880Y005969D01*
X016695Y005969D01*
X016523Y005898D01*
X016392Y005767D01*
X016321Y005595D01*
X016321Y005410D01*
X016392Y005238D01*
X016523Y005107D01*
X016695Y005036D01*
X016880Y005036D01*
X017052Y005107D01*
X017183Y005238D01*
X017254Y005410D01*
X017254Y005595D01*
X017183Y005767D01*
X017052Y005898D01*
X017156Y005794D02*
X017601Y005794D01*
X017601Y005695D02*
X017212Y005695D01*
X017253Y005597D02*
X017601Y005597D01*
X017601Y005498D02*
X017254Y005498D01*
X017250Y005400D02*
X017601Y005400D01*
X017601Y005301D02*
X017209Y005301D01*
X017147Y005203D02*
X017601Y005203D01*
X017601Y005104D02*
X017044Y005104D01*
X016530Y005104D02*
X016277Y005104D01*
X016277Y005006D02*
X017601Y005006D01*
X017601Y004907D02*
X016277Y004907D01*
X016277Y004809D02*
X017601Y004809D01*
X017601Y004710D02*
X016263Y004710D01*
X016274Y004513D02*
X017601Y004513D01*
X017601Y004611D02*
X014922Y004611D01*
X014876Y004710D02*
X015265Y004710D01*
X015250Y004809D02*
X014922Y004809D01*
X014922Y005170D02*
X014922Y005263D01*
X014852Y005334D01*
X014320Y005334D01*
X014251Y005265D01*
X014183Y005334D01*
X014076Y005334D01*
X014076Y005500D01*
X014583Y005500D01*
X014635Y005552D01*
X014649Y005528D01*
X014677Y005500D01*
X014711Y005480D01*
X014750Y005470D01*
X014937Y005470D01*
X014937Y005768D01*
X015034Y005768D01*
X015034Y005470D01*
X015222Y005470D01*
X015260Y005480D01*
X015294Y005500D01*
X015322Y005528D01*
X015342Y005562D01*
X015352Y005600D01*
X015352Y005639D01*
X015554Y005639D01*
X015526Y005571D01*
X015526Y005462D01*
X015566Y005367D01*
X015320Y005367D01*
X015250Y005296D01*
X015250Y005170D01*
X014922Y005170D01*
X014922Y005203D02*
X015250Y005203D01*
X015255Y005301D02*
X014884Y005301D01*
X014937Y005498D02*
X015034Y005498D01*
X015034Y005597D02*
X014937Y005597D01*
X014937Y005695D02*
X015034Y005695D01*
X015292Y005498D02*
X015526Y005498D01*
X015537Y005597D02*
X015351Y005597D01*
X015552Y005400D02*
X014076Y005400D01*
X014076Y005498D02*
X014680Y005498D01*
X014287Y005301D02*
X014215Y005301D01*
X013336Y005006D02*
X013218Y005006D01*
X013231Y004907D02*
X013341Y004907D01*
X013341Y004809D02*
X013146Y004809D01*
X013048Y004710D02*
X013341Y004710D01*
X013341Y004611D02*
X012949Y004611D01*
X012851Y004513D02*
X013379Y004513D01*
X013477Y004414D02*
X012752Y004414D01*
X012635Y004414D02*
X012576Y004414D01*
X012536Y004316D02*
X013580Y004316D01*
X013797Y003922D02*
X013091Y003922D01*
X012394Y004020D02*
X011761Y004020D01*
X011973Y003922D02*
X012296Y003922D01*
X012197Y003823D02*
X012071Y003823D01*
X011902Y003527D02*
X010739Y003527D01*
X010640Y003429D02*
X011803Y003429D01*
X010638Y003133D02*
X010344Y003133D01*
X010401Y003035D02*
X010616Y003035D01*
X010631Y002936D02*
X010499Y002936D01*
X010558Y002878D02*
X010558Y002878D01*
X010598Y002838D02*
X010691Y002838D01*
X009579Y003429D02*
X009578Y003429D01*
X009677Y003527D02*
X009677Y003527D01*
X009775Y003626D02*
X009776Y003626D01*
X009745Y003725D02*
X009926Y003725D01*
X010025Y003823D02*
X009796Y003823D01*
X009859Y003922D02*
X010123Y003922D01*
X010176Y004020D02*
X009876Y004020D01*
X009857Y004119D02*
X010216Y004119D01*
X010178Y004217D02*
X010337Y004217D01*
X010276Y004316D02*
X011441Y004316D01*
X011441Y004414D02*
X010361Y004414D01*
X010361Y004513D02*
X011441Y004513D01*
X011441Y004611D02*
X010361Y004611D01*
X010361Y004710D02*
X011441Y004710D01*
X011371Y004809D02*
X010361Y004809D01*
X010287Y004907D02*
X011328Y004907D01*
X011326Y005006D02*
X010189Y005006D01*
X010197Y005104D02*
X010090Y005104D01*
X010056Y005203D02*
X009963Y005203D01*
X010366Y005104D02*
X011360Y005104D01*
X011452Y005203D02*
X010506Y005203D01*
X012725Y005498D02*
X012731Y005498D01*
X012824Y005400D02*
X012942Y005400D01*
X012922Y005301D02*
X013040Y005301D01*
X013021Y005203D02*
X013139Y005203D01*
X013119Y005104D02*
X013238Y005104D01*
X014937Y005892D02*
X015034Y005892D01*
X015034Y005991D02*
X014937Y005991D01*
X014937Y006090D02*
X015034Y006090D01*
X014640Y006090D02*
X014627Y006090D01*
X016066Y005597D02*
X016321Y005597D01*
X016321Y005498D02*
X016076Y005498D01*
X016050Y005400D02*
X016325Y005400D01*
X016366Y005301D02*
X016273Y005301D01*
X016277Y005203D02*
X016428Y005203D01*
X016362Y005695D02*
X016264Y005695D01*
X016277Y005794D02*
X016419Y005794D01*
X016518Y005892D02*
X016277Y005892D01*
X017218Y006484D02*
X017601Y006484D01*
X017601Y006582D02*
X017352Y006582D01*
X017418Y006681D02*
X017601Y006681D01*
X017601Y006779D02*
X017459Y006779D01*
X017459Y006878D02*
X017601Y006878D01*
X017601Y006976D02*
X017445Y006976D01*
X017404Y007075D02*
X017601Y007075D01*
X017601Y007174D02*
X017318Y007174D01*
X017136Y007272D02*
X017601Y007272D01*
X017601Y007568D02*
X015964Y007568D01*
X015951Y007666D02*
X017601Y007666D01*
X017601Y007765D02*
X015936Y007765D01*
X015837Y007863D02*
X017601Y007863D01*
X017601Y007962D02*
X015739Y007962D01*
X015252Y008060D02*
X017601Y008060D01*
X017601Y004414D02*
X016277Y004414D01*
X016277Y004316D02*
X017601Y004316D01*
X017601Y004217D02*
X016277Y004217D01*
X016277Y004119D02*
X016515Y004119D01*
X016523Y004126D02*
X016392Y003995D01*
X016321Y003824D01*
X016321Y003638D01*
X016392Y003467D01*
X016523Y003335D01*
X016695Y003264D01*
X016880Y003264D01*
X017052Y003335D01*
X017183Y003467D01*
X017254Y003638D01*
X017254Y003824D01*
X017183Y003995D01*
X017052Y004126D01*
X016880Y004197D01*
X016695Y004197D01*
X016523Y004126D01*
X016417Y004020D02*
X016277Y004020D01*
X016262Y003922D02*
X016361Y003922D01*
X016321Y003823D02*
X014345Y003823D01*
X014389Y003725D02*
X016321Y003725D01*
X016326Y003626D02*
X014359Y003626D01*
X014261Y003527D02*
X015229Y003527D01*
X015230Y003533D02*
X015220Y003495D01*
X015220Y003289D01*
X015714Y003289D01*
X015714Y003625D01*
X015350Y003625D01*
X015312Y003615D01*
X015278Y003595D01*
X015250Y003567D01*
X015230Y003533D01*
X015220Y003429D02*
X014152Y003429D01*
X014191Y003527D02*
X014054Y003527D01*
X014092Y003626D02*
X013955Y003626D01*
X014064Y003330D02*
X015220Y003330D01*
X015220Y003189D02*
X015220Y002983D01*
X015230Y002945D01*
X015250Y002910D01*
X015278Y002883D01*
X015312Y002863D01*
X015350Y002853D01*
X015714Y002853D01*
X015714Y003189D01*
X015814Y003189D01*
X015814Y003289D01*
X016307Y003289D01*
X016307Y003495D01*
X016297Y003533D01*
X016277Y003567D01*
X016250Y003595D01*
X016215Y003615D01*
X016177Y003625D01*
X015814Y003625D01*
X015814Y003289D01*
X015714Y003289D01*
X015714Y003189D01*
X015220Y003189D01*
X015220Y003133D02*
X013824Y003133D01*
X013885Y003232D02*
X015714Y003232D01*
X015714Y003330D02*
X015814Y003330D01*
X015814Y003232D02*
X017601Y003232D01*
X017601Y003330D02*
X017039Y003330D01*
X017145Y003429D02*
X017601Y003429D01*
X017601Y003527D02*
X017208Y003527D01*
X017249Y003626D02*
X017601Y003626D01*
X017601Y003725D02*
X017254Y003725D01*
X017254Y003823D02*
X017601Y003823D01*
X017601Y003922D02*
X017213Y003922D01*
X017158Y004020D02*
X017601Y004020D01*
X017601Y004119D02*
X017059Y004119D01*
X016367Y003527D02*
X016299Y003527D01*
X016307Y003429D02*
X016430Y003429D01*
X016535Y003330D02*
X016307Y003330D01*
X016307Y003189D02*
X015814Y003189D01*
X015814Y002853D01*
X016177Y002853D01*
X016215Y002863D01*
X016250Y002883D01*
X016277Y002910D01*
X016297Y002945D01*
X016307Y002983D01*
X016307Y003189D01*
X016307Y003133D02*
X017601Y003133D01*
X017601Y003035D02*
X016307Y003035D01*
X016292Y002936D02*
X017601Y002936D01*
X017601Y002838D02*
X013529Y002838D01*
X013505Y002739D02*
X016292Y002739D01*
X016257Y002725D02*
X016140Y002608D01*
X016077Y002455D01*
X016077Y002290D01*
X016140Y002137D01*
X016257Y002021D01*
X016409Y001957D01*
X017165Y001957D01*
X017318Y002021D01*
X017435Y002137D01*
X017498Y002290D01*
X017498Y002455D01*
X017435Y002608D01*
X017318Y002725D01*
X017165Y002788D01*
X016409Y002788D01*
X016257Y002725D01*
X016173Y002641D02*
X014819Y002641D01*
X014834Y002542D02*
X016113Y002542D01*
X016077Y002443D02*
X015092Y002443D01*
X015190Y002345D02*
X016077Y002345D01*
X016095Y002246D02*
X015568Y002246D01*
X015568Y002148D02*
X016136Y002148D01*
X016228Y002049D02*
X015568Y002049D01*
X015568Y001951D02*
X017601Y001951D01*
X017601Y002049D02*
X017347Y002049D01*
X017439Y002148D02*
X017601Y002148D01*
X017601Y002246D02*
X017480Y002246D01*
X017498Y002345D02*
X017601Y002345D01*
X017601Y002443D02*
X017498Y002443D01*
X017462Y002542D02*
X017601Y002542D01*
X017601Y002641D02*
X017402Y002641D01*
X017283Y002739D02*
X017601Y002739D01*
X015814Y002936D02*
X015714Y002936D01*
X015714Y003035D02*
X015814Y003035D01*
X015814Y003133D02*
X015714Y003133D01*
X015220Y003035D02*
X013726Y003035D01*
X013627Y002936D02*
X015235Y002936D01*
X015714Y003429D02*
X015814Y003429D01*
X015814Y003527D02*
X015714Y003527D01*
X015250Y004119D02*
X014871Y004119D01*
X014922Y004217D02*
X015209Y004217D01*
X013980Y002641D02*
X013604Y002641D01*
X013702Y002542D02*
X013964Y002542D01*
X013632Y002160D02*
X013338Y002454D01*
X013338Y002014D01*
X013268Y001944D01*
X012651Y001944D01*
X012661Y001933D01*
X012804Y001790D01*
X013268Y001790D01*
X013338Y001720D01*
X013338Y001117D01*
X013964Y001117D01*
X013964Y001720D01*
X014035Y001790D01*
X014764Y001790D01*
X014834Y001720D01*
X014834Y001117D01*
X014904Y001117D01*
X014904Y001284D01*
X015202Y001284D01*
X015202Y001381D01*
X014904Y001381D01*
X014904Y001568D01*
X014915Y001607D01*
X014934Y001641D01*
X014962Y001669D01*
X014987Y001683D01*
X014934Y001735D01*
X014934Y002035D01*
X014850Y002120D01*
X014834Y002120D01*
X014834Y002014D01*
X014764Y001944D01*
X014035Y001944D01*
X013964Y002014D01*
X013964Y002160D01*
X013765Y002160D01*
X013632Y002160D01*
X013545Y002246D02*
X013338Y002246D01*
X013338Y002148D02*
X013964Y002148D01*
X013964Y002049D02*
X013338Y002049D01*
X013275Y001951D02*
X014027Y001951D01*
X013998Y001754D02*
X013304Y001754D01*
X013338Y001655D02*
X013964Y001655D01*
X013964Y001557D02*
X013338Y001557D01*
X013338Y001458D02*
X013964Y001458D01*
X013964Y001359D02*
X013338Y001359D01*
X013338Y001261D02*
X013964Y001261D01*
X013964Y001162D02*
X013338Y001162D01*
X012152Y001234D02*
X011854Y001234D01*
X011854Y001117D01*
X008128Y001117D01*
X008141Y001139D01*
X008151Y001177D01*
X008151Y001642D01*
X007876Y001642D01*
X007876Y001692D01*
X007826Y001692D01*
X007826Y002287D01*
X007681Y002287D01*
X007643Y002276D01*
X007609Y002257D01*
X007601Y002249D01*
X007593Y002257D01*
X007559Y002276D01*
X007521Y002287D01*
X007376Y002287D01*
X007376Y001692D01*
X007326Y001692D01*
X007326Y002287D01*
X007181Y002287D01*
X007143Y002276D01*
X007109Y002257D01*
X007101Y002249D01*
X007093Y002257D01*
X007059Y002276D01*
X007021Y002287D01*
X006876Y002287D01*
X006876Y001692D01*
X006826Y001692D01*
X006826Y002287D01*
X006681Y002287D01*
X006643Y002276D01*
X006609Y002257D01*
X006601Y002249D01*
X006593Y002257D01*
X006559Y002276D01*
X006521Y002287D01*
X006376Y002287D01*
X006376Y001692D01*
X006326Y001692D01*
X006326Y002287D01*
X006181Y002287D01*
X006143Y002276D01*
X006109Y002257D01*
X006081Y002229D01*
X006080Y002227D01*
X006064Y002243D01*
X006357Y002537D01*
X008045Y002537D01*
X008177Y002537D01*
X008260Y002619D01*
X008250Y002583D01*
X008250Y002415D01*
X008250Y002542D02*
X008183Y002542D01*
X008059Y002276D02*
X008021Y002287D01*
X007876Y002287D01*
X007876Y001692D01*
X008151Y001692D01*
X008151Y002156D01*
X008141Y002195D01*
X008121Y002229D01*
X008093Y002257D01*
X008059Y002276D01*
X008104Y002246D02*
X008250Y002246D01*
X008251Y002148D02*
X008151Y002148D01*
X008151Y002049D02*
X008309Y002049D01*
X008151Y001951D02*
X008474Y001951D01*
X008474Y001852D02*
X008151Y001852D01*
X008151Y001754D02*
X008474Y001754D01*
X008474Y001557D02*
X008151Y001557D01*
X008151Y001458D02*
X008474Y001458D01*
X008474Y001359D02*
X008151Y001359D01*
X008151Y001261D02*
X008492Y001261D01*
X008753Y001261D02*
X008811Y001261D01*
X008811Y001182D02*
X008959Y001182D01*
X008997Y001192D01*
X009031Y001212D01*
X009059Y001240D01*
X009079Y001274D01*
X009089Y001312D01*
X009089Y001638D01*
X008811Y001638D01*
X008811Y001182D01*
X009071Y001261D02*
X009864Y001261D01*
X009843Y001359D02*
X009089Y001359D01*
X009089Y001458D02*
X009843Y001458D01*
X009843Y001557D02*
X009089Y001557D01*
X009089Y001754D02*
X009843Y001754D01*
X009843Y001852D02*
X009089Y001852D01*
X009089Y001951D02*
X009725Y001951D01*
X009580Y002049D02*
X009082Y002049D01*
X008568Y002345D02*
X006166Y002345D01*
X006099Y002246D02*
X006067Y002246D01*
X006326Y002246D02*
X006376Y002246D01*
X006376Y002148D02*
X006326Y002148D01*
X006326Y002049D02*
X006376Y002049D01*
X006376Y001951D02*
X006326Y001951D01*
X006326Y001852D02*
X006376Y001852D01*
X006376Y001754D02*
X006326Y001754D01*
X006376Y001692D02*
X006551Y001692D01*
X006826Y001692D01*
X006826Y001642D01*
X006551Y001642D01*
X006376Y001642D01*
X006376Y001692D01*
X006376Y001655D02*
X006826Y001655D01*
X006876Y001655D02*
X007326Y001655D01*
X007326Y001642D02*
X007051Y001642D01*
X006876Y001642D01*
X006876Y001692D01*
X007051Y001692D01*
X007326Y001692D01*
X007326Y001642D01*
X007376Y001642D02*
X007376Y001692D01*
X007551Y001692D01*
X007826Y001692D01*
X007826Y001642D01*
X007551Y001642D01*
X007376Y001642D01*
X007376Y001655D02*
X007826Y001655D01*
X007876Y001655D02*
X008753Y001655D01*
X008811Y001655D02*
X009843Y001655D01*
X010398Y001458D02*
X011854Y001458D01*
X011854Y001518D02*
X011854Y001331D01*
X012152Y001331D01*
X012152Y001234D01*
X012152Y001261D02*
X010376Y001261D01*
X010398Y001359D02*
X011854Y001359D01*
X011854Y001518D02*
X011865Y001557D01*
X011884Y001852D02*
X011713Y001852D01*
X011811Y001951D02*
X011884Y001951D01*
X012742Y001852D02*
X014934Y001852D01*
X014934Y001754D02*
X014800Y001754D01*
X014834Y001655D02*
X014949Y001655D01*
X014904Y001557D02*
X014834Y001557D01*
X014834Y001458D02*
X014904Y001458D01*
X014834Y001359D02*
X015202Y001359D01*
X015300Y001359D02*
X017601Y001359D01*
X017601Y001261D02*
X015598Y001261D01*
X015598Y001162D02*
X017601Y001162D01*
X017601Y001458D02*
X015598Y001458D01*
X015598Y001557D02*
X017601Y001557D01*
X017601Y001655D02*
X015554Y001655D01*
X015568Y001754D02*
X017601Y001754D01*
X017601Y001852D02*
X015568Y001852D01*
X014934Y001951D02*
X014771Y001951D01*
X014834Y002049D02*
X014920Y002049D01*
X013447Y002345D02*
X013338Y002345D01*
X013338Y002443D02*
X013348Y002443D01*
X014834Y001261D02*
X014904Y001261D01*
X014904Y001162D02*
X014834Y001162D01*
X011854Y001162D02*
X008147Y001162D01*
X008753Y001359D02*
X008811Y001359D01*
X008811Y001458D02*
X008753Y001458D01*
X008753Y001557D02*
X008811Y001557D01*
X007876Y001754D02*
X007826Y001754D01*
X007826Y001852D02*
X007876Y001852D01*
X007876Y001951D02*
X007826Y001951D01*
X007826Y002049D02*
X007876Y002049D01*
X007876Y002148D02*
X007826Y002148D01*
X007826Y002246D02*
X007876Y002246D01*
X007376Y002246D02*
X007326Y002246D01*
X007326Y002148D02*
X007376Y002148D01*
X007376Y002049D02*
X007326Y002049D01*
X007326Y001951D02*
X007376Y001951D01*
X007376Y001852D02*
X007326Y001852D01*
X007326Y001754D02*
X007376Y001754D01*
X006876Y001754D02*
X006826Y001754D01*
X006826Y001852D02*
X006876Y001852D01*
X006876Y001951D02*
X006826Y001951D01*
X006826Y002049D02*
X006876Y002049D01*
X006876Y002148D02*
X006826Y002148D01*
X006826Y002246D02*
X006876Y002246D01*
X005004Y001359D02*
X004962Y001359D01*
X005581Y001162D02*
X003385Y001162D01*
X003086Y001359D02*
X003029Y001359D01*
X003029Y001458D02*
X003086Y001458D01*
X003086Y001557D02*
X003029Y001557D01*
X002775Y001557D02*
X002681Y001557D01*
X002681Y001655D02*
X003587Y001655D01*
X003587Y001557D02*
X003340Y001557D01*
X003385Y001458D02*
X003589Y001458D01*
X003587Y001754D02*
X002681Y001754D01*
X002681Y001852D02*
X002760Y001852D01*
X002760Y001951D02*
X002476Y001951D01*
X002476Y002049D02*
X002760Y002049D01*
X002760Y002148D02*
X002476Y002148D01*
X002476Y002246D02*
X002760Y002246D01*
X002826Y002345D02*
X002476Y002345D01*
X003355Y001852D02*
X003587Y001852D01*
X002730Y001458D02*
X002680Y001458D01*
X002730Y001359D02*
X001885Y001359D01*
X001885Y001261D02*
X002730Y001261D01*
X002730Y001162D02*
X001885Y001162D01*
X001586Y001359D02*
X001529Y001359D01*
X001529Y001458D02*
X001586Y001458D01*
X001586Y001557D02*
X001529Y001557D01*
X001275Y001557D02*
X000401Y001557D01*
X000401Y001655D02*
X002087Y001655D01*
X002087Y001557D02*
X001840Y001557D01*
X001885Y001458D02*
X002089Y001458D01*
X001230Y001458D02*
X000401Y001458D01*
X000401Y001359D02*
X001230Y001359D01*
X001230Y001261D02*
X000401Y001261D01*
X000401Y001162D02*
X001230Y001162D01*
X001198Y003133D02*
X000965Y003133D01*
X000907Y003232D02*
X001198Y003232D01*
X001198Y003330D02*
X000401Y003330D01*
X000401Y003232D02*
X000429Y003232D01*
X000401Y003429D02*
X001180Y003429D01*
X000873Y003527D02*
X000401Y003527D01*
X000401Y003626D02*
X000834Y003626D01*
X000834Y003725D02*
X000401Y003725D01*
X000401Y003823D02*
X000834Y003823D01*
X000834Y003922D02*
X000401Y003922D01*
X000401Y004020D02*
X000834Y004020D01*
X000855Y004119D02*
X000401Y004119D01*
X000401Y004217D02*
X000852Y004217D01*
X000834Y004316D02*
X000764Y004316D01*
X000538Y004316D02*
X000401Y004316D01*
X000401Y004414D02*
X000417Y004414D01*
X001448Y004119D02*
X001684Y004119D01*
X001684Y004217D02*
X001450Y004217D01*
X001468Y004316D02*
X001752Y004316D01*
X001684Y004414D02*
X001468Y004414D01*
X001468Y004513D02*
X001684Y004513D01*
X001684Y004611D02*
X001468Y004611D01*
X001468Y004710D02*
X001684Y004710D01*
X001618Y004809D02*
X001427Y004809D01*
X002318Y004414D02*
X002377Y004414D01*
X002360Y004316D02*
X002251Y004316D01*
X002318Y004217D02*
X002360Y004217D01*
X001684Y004020D02*
X001468Y004020D01*
X001468Y003922D02*
X001684Y003922D01*
X001684Y003823D02*
X001468Y003823D01*
X001468Y003725D02*
X001684Y003725D01*
X001792Y003527D02*
X002330Y003527D01*
X002332Y003626D02*
X001468Y003626D01*
X002318Y003725D02*
X002396Y003725D01*
X003237Y005104D02*
X003265Y005104D01*
X001437Y005597D02*
X000401Y005597D01*
X000401Y005695D02*
X000649Y005695D01*
X000610Y005794D02*
X000401Y005794D01*
X000401Y005892D02*
X000610Y005892D01*
X000610Y005991D02*
X000401Y005991D01*
X000401Y006090D02*
X000610Y006090D01*
X000608Y006188D02*
X000401Y006188D01*
X000401Y006287D02*
X000550Y006287D01*
X000550Y006385D02*
X000401Y006385D01*
X000401Y006484D02*
X000550Y006484D01*
X000550Y006582D02*
X000401Y006582D01*
X000401Y006681D02*
X000550Y006681D01*
X003072Y007469D02*
X003178Y007469D01*
X003123Y007371D02*
X003108Y007371D01*
X010565Y004217D02*
X011441Y004217D01*
X011441Y004119D02*
X010686Y004119D01*
X010726Y004020D02*
X011378Y004020D01*
D27*
X010851Y004417D03*
X010451Y003967D03*
X009601Y004017D03*
X008551Y004417D03*
X009591Y004677D03*
X010281Y005367D03*
X011601Y004967D03*
X012301Y004467D03*
X011501Y003467D03*
X010891Y003027D03*
X009801Y002217D03*
X009031Y002937D03*
X008831Y003277D03*
X008291Y003487D03*
X006931Y004367D03*
X006431Y004367D03*
X005301Y004167D03*
X007501Y004917D03*
X008101Y005667D03*
X009621Y006267D03*
X009891Y006537D03*
X011001Y006767D03*
X012251Y006317D03*
X012701Y006467D03*
X012751Y006867D03*
X014951Y006367D03*
X015801Y005517D03*
X012801Y005767D03*
X016401Y007767D03*
X008201Y007617D03*
X006951Y007767D03*
X006351Y007167D03*
X007001Y006367D03*
X006501Y005767D03*
X005001Y006167D03*
X003251Y005767D03*
X002301Y005367D03*
X000651Y004567D03*
X002301Y006217D03*
X002701Y006967D03*
X004531Y002987D03*
X005651Y002767D03*
X006271Y002967D03*
X007851Y002417D03*
X005101Y001617D03*
X000651Y001267D03*
X010551Y001367D03*
X011001Y001367D03*
X014951Y003267D03*
X014951Y003717D03*
X015751Y002567D03*
D28*
X015951Y002367D01*
X015951Y001367D01*
X015817Y001232D01*
X015251Y001332D01*
X014399Y002320D02*
X013698Y002320D01*
X013301Y002717D01*
X012665Y002717D01*
X012171Y003210D01*
X012032Y003071D02*
X012401Y002702D01*
X012401Y002467D01*
X012051Y002117D01*
X012201Y001951D01*
X012236Y001867D01*
X012201Y001867D01*
X012136Y001867D01*
X012236Y001867D02*
X012301Y001867D01*
X012501Y001867D01*
X012903Y001465D01*
X012903Y001414D01*
X012201Y001282D02*
X011636Y001232D01*
X011451Y001417D01*
X011601Y001967D02*
X010901Y001967D01*
X010851Y002017D01*
X010470Y002017D01*
X010120Y001667D01*
X009801Y002217D02*
X009801Y002517D01*
X010051Y002767D01*
X010056Y002792D01*
X009916Y002932D02*
X009352Y002367D01*
X009286Y002367D01*
X009251Y002387D01*
X009171Y002387D01*
X008701Y002857D01*
X008251Y002857D01*
X008111Y002717D01*
X008111Y002697D01*
X006291Y002697D01*
X005881Y002287D01*
X005881Y001697D01*
X005851Y001667D01*
X005101Y001617D02*
X005051Y001567D01*
X004651Y001567D01*
X004651Y001632D01*
X004617Y001667D01*
X003884Y001667D01*
X003057Y002041D02*
X002986Y002112D01*
X002986Y002667D01*
X002317Y002667D02*
X002317Y002851D01*
X001951Y003217D01*
X001619Y003217D01*
X001495Y003341D01*
X001151Y003684D01*
X001151Y003832D01*
X002001Y003982D02*
X002449Y003982D01*
X002657Y004191D01*
X002001Y004651D02*
X001734Y004918D01*
X001734Y005567D01*
X001575Y005726D01*
X001575Y006473D01*
X001575Y007025D01*
X002067Y007517D01*
X002701Y007482D02*
X002736Y007517D01*
X003086Y007167D01*
X003518Y007167D01*
X002701Y006967D02*
X002701Y007482D01*
X004384Y006850D02*
X004384Y006793D01*
X004384Y006850D02*
X004851Y007317D01*
X004877Y007317D01*
X005101Y007541D01*
X005425Y007217D01*
X006001Y007217D01*
X006145Y007361D01*
X006145Y007729D01*
X006351Y007167D02*
X006251Y007067D01*
X006001Y007067D01*
X005901Y006967D01*
X005901Y006817D01*
X005801Y006717D01*
X005777Y006705D01*
X005742Y006067D02*
X007768Y006067D01*
X007818Y006117D01*
X008645Y005743D02*
X008645Y005560D01*
X008151Y005067D01*
X008151Y004817D01*
X008551Y004417D01*
X009051Y004367D02*
X010101Y004367D01*
X010201Y004467D01*
X010201Y004767D01*
X010021Y004947D01*
X009599Y004947D01*
X009360Y005187D01*
X009221Y005047D02*
X009221Y005047D01*
X009591Y004677D01*
X009051Y004367D02*
X008291Y003607D01*
X008291Y003487D01*
X007851Y003537D02*
X007851Y003667D01*
X007851Y003537D02*
X008371Y003017D01*
X008761Y003017D01*
X008841Y002937D01*
X009031Y002937D01*
X009638Y003210D02*
X010395Y003967D01*
X010451Y003967D01*
X010752Y003767D02*
X009916Y002932D01*
X009651Y003217D02*
X009638Y003210D01*
X009181Y003627D02*
X008831Y003277D01*
X009181Y003627D02*
X009211Y003627D01*
X009221Y003628D01*
X009101Y003767D02*
X009081Y003767D01*
X009101Y003767D02*
X009351Y004017D01*
X009601Y004017D01*
X010752Y003767D02*
X011351Y003767D01*
X011601Y004017D01*
X011601Y004967D01*
X012301Y004467D02*
X012728Y004894D01*
X012728Y004908D01*
X013501Y005067D02*
X013501Y004617D01*
X013601Y004517D01*
X013817Y004517D01*
X013917Y004417D01*
X014586Y004417D02*
X015236Y004417D01*
X015430Y004223D01*
X015764Y004223D01*
X015764Y005010D02*
X014592Y005010D01*
X014586Y005017D01*
X013917Y005017D02*
X013917Y005867D01*
X013667Y006117D01*
X012551Y006117D01*
X012039Y005604D01*
X012032Y005604D01*
X011893Y005743D02*
X012251Y006101D01*
X012251Y006317D01*
X012051Y006517D01*
X012051Y006982D01*
X012051Y007651D02*
X011886Y007817D01*
X010801Y007817D01*
X010675Y007691D01*
X010368Y007691D01*
X010368Y006943D02*
X010111Y006987D01*
X009961Y006837D01*
X009961Y006607D01*
X009891Y006537D01*
X009671Y006267D02*
X009621Y006267D01*
X009671Y006267D02*
X010056Y005883D01*
X010051Y005887D01*
X009916Y005743D02*
X009921Y005737D01*
X010281Y005377D01*
X010281Y005367D01*
X012801Y005767D02*
X013501Y005067D01*
X015801Y005517D02*
X015801Y005957D01*
X015764Y005995D01*
X014125Y006791D02*
X014125Y006934D01*
X014101Y006958D01*
X014101Y007267D01*
X014001Y007367D01*
X013501Y007367D01*
X013167Y007701D01*
X012101Y007701D01*
X012051Y007651D01*
X013484Y008067D02*
X013751Y007800D01*
X017001Y008015D02*
X017001Y007518D01*
X012319Y003349D02*
X011901Y003767D01*
X011351Y003767D01*
X012311Y003349D02*
X012319Y003349D01*
X012801Y002867D01*
X013110Y002867D01*
X013473Y003230D01*
X012051Y002517D02*
X011776Y002792D01*
X011754Y002792D01*
X011754Y002814D01*
X011615Y002653D02*
X011261Y003007D01*
X011241Y003027D01*
X010891Y003027D01*
X012051Y002517D02*
X012051Y002417D01*
X011601Y001967D01*
X006851Y003667D02*
X006851Y004287D01*
X006931Y004367D01*
X006431Y004367D02*
X006351Y004287D01*
X006351Y003667D01*
X005851Y003667D02*
X005881Y003357D01*
X006271Y002967D01*
X005851Y003217D02*
X005851Y003667D01*
X004851Y003567D02*
X004351Y004067D01*
X004351Y004101D01*
X003967Y003817D02*
X004351Y003432D01*
X004371Y003397D01*
X004371Y003147D01*
X004531Y002987D01*
X004851Y002517D02*
X004851Y003567D01*
X003967Y003817D02*
X003484Y003817D01*
X001151Y004501D02*
X000717Y004501D01*
X000651Y004567D01*
X002917Y005367D02*
X002917Y005767D01*
X003251Y005767D01*
X002917Y005767D02*
X002917Y006167D01*
X003586Y006167D02*
X004061Y006167D01*
X004361Y005867D01*
X005542Y005867D02*
X005742Y006067D01*
X006268Y005317D02*
X005918Y004967D01*
X005542Y004967D01*
X004361Y004967D02*
X003961Y005367D01*
X003586Y005367D01*
X000907Y005941D02*
X000827Y006021D01*
X000827Y006473D01*
X007095Y004943D02*
X007101Y004917D01*
X007501Y004917D01*
X007463Y006855D02*
X007501Y006893D01*
X002317Y002667D02*
X002317Y001734D01*
X002384Y001667D01*
X001557Y002041D02*
X001495Y002103D01*
X001495Y002593D01*
X004651Y002317D02*
X004651Y002301D01*
X004651Y002317D02*
X004851Y002517D01*
D29*
X014399Y002320D02*
X014933Y002320D01*
X015251Y002001D01*
X015764Y005995D02*
X015764Y007554D01*
X015751Y007567D01*
X015751Y007667D01*
X015651Y007767D01*
X015177Y007767D01*
X014851Y007741D01*
X015092Y007800D01*
X013751Y007800D01*
X013484Y008067D02*
X008651Y008067D01*
X008201Y007617D01*
X007501Y007641D02*
X007501Y008067D01*
X007451Y008117D01*
X005851Y008117D01*
X005751Y008017D01*
X005751Y007755D01*
X005777Y007729D01*
X007263Y006705D02*
X007501Y006893D01*
X007263Y006705D02*
X006525Y006705D01*
D30*
X014125Y006791D02*
X014317Y006599D01*
X014317Y006017D01*
X014317Y005817D01*
M02*
