G75*
G70*
%OFA0B0*%
%FSLAX24Y24*%
%IPPOS*%
%LPD*%
%AMOC8*
5,1,8,0,0,1.08239X$1,22.5*
%
%ADD10C,0.0591*%
%ADD11C,0.0100*%
%ADD12C,0.0310*%
%ADD13C,0.0080*%
%ADD14C,0.0160*%
D10*
X016492Y002373D02*
X017083Y002373D01*
X017043Y006861D02*
X016453Y006861D01*
D11*
X000401Y004452D02*
X000401Y001117D01*
X017601Y001117D01*
X017601Y008097D01*
X000401Y008097D01*
X000401Y004682D01*
X000418Y004723D01*
X000491Y004796D01*
X000491Y006600D01*
X000491Y006733D01*
X000791Y007033D01*
X000885Y007127D01*
X002472Y007127D01*
X002545Y007200D01*
X002646Y007242D01*
X002756Y007242D01*
X002857Y007200D01*
X002934Y007123D01*
X002976Y007021D01*
X002976Y006912D01*
X002934Y006811D01*
X002857Y006734D01*
X002756Y006692D01*
X002646Y006692D01*
X002545Y006734D01*
X002472Y006807D01*
X001017Y006807D01*
X000811Y006600D01*
X000811Y004796D01*
X000884Y004723D01*
X000926Y004621D01*
X000926Y004512D01*
X000884Y004411D01*
X000807Y004334D01*
X000706Y004292D01*
X000596Y004292D01*
X000495Y004334D01*
X000418Y004411D01*
X000401Y004452D01*
X000401Y004414D02*
X000417Y004414D01*
X000401Y004316D02*
X000538Y004316D01*
X000401Y004217D02*
X006195Y004217D01*
X006198Y004211D02*
X006275Y004134D01*
X006376Y004092D01*
X006486Y004092D01*
X006587Y004134D01*
X006664Y004211D01*
X006681Y004252D01*
X006698Y004211D01*
X006775Y004134D01*
X006876Y004092D01*
X006986Y004092D01*
X007087Y004134D01*
X007164Y004211D01*
X007206Y004312D01*
X007206Y004421D01*
X007164Y004523D01*
X007091Y004596D01*
X007091Y004900D01*
X007397Y005207D01*
X008787Y005207D01*
X008881Y005300D01*
X009572Y005992D01*
X009676Y005992D01*
X009731Y006015D01*
X009731Y004916D01*
X009646Y004952D01*
X009536Y004952D01*
X009435Y004910D01*
X009358Y004833D01*
X009316Y004731D01*
X009316Y004622D01*
X009358Y004521D01*
X009435Y004444D01*
X009536Y004402D01*
X009646Y004402D01*
X009747Y004444D01*
X009820Y004517D01*
X009957Y004517D01*
X010051Y004610D01*
X010051Y004743D01*
X010051Y005208D01*
X010125Y005134D01*
X010226Y005092D01*
X010336Y005092D01*
X010437Y005134D01*
X010514Y005211D01*
X010556Y005312D01*
X010556Y005421D01*
X010514Y005523D01*
X010437Y005600D01*
X010411Y005611D01*
X010411Y006633D01*
X010317Y006727D01*
X010077Y006967D01*
X009945Y006967D01*
X008485Y006967D01*
X008391Y006873D01*
X006365Y004847D01*
X006271Y004753D01*
X006271Y004596D01*
X006198Y004523D01*
X006156Y004421D01*
X006156Y004312D01*
X006198Y004211D01*
X006156Y004316D02*
X000764Y004316D01*
X000886Y004414D02*
X006156Y004414D01*
X006194Y004513D02*
X000926Y004513D01*
X000926Y004611D02*
X006271Y004611D01*
X006271Y004710D02*
X000890Y004710D01*
X000811Y004809D02*
X006327Y004809D01*
X006425Y004907D02*
X000811Y004907D01*
X000811Y005006D02*
X006524Y005006D01*
X006622Y005104D02*
X000811Y005104D01*
X000811Y005203D02*
X006721Y005203D01*
X006819Y005301D02*
X000811Y005301D01*
X000811Y005400D02*
X006918Y005400D01*
X007016Y005498D02*
X003322Y005498D01*
X003306Y005492D02*
X003407Y005534D01*
X003484Y005611D01*
X003526Y005712D01*
X003526Y005816D01*
X004667Y006957D01*
X006172Y006957D01*
X006195Y006934D01*
X006296Y006892D01*
X006406Y006892D01*
X006507Y006934D01*
X006540Y006967D01*
X007718Y006967D01*
X007884Y006967D01*
X008261Y007344D01*
X008357Y007384D01*
X008434Y007461D01*
X008476Y007562D01*
X008476Y007671D01*
X008434Y007773D01*
X008357Y007850D01*
X008256Y007892D01*
X008146Y007892D01*
X008045Y007850D01*
X007968Y007773D01*
X007926Y007671D01*
X007926Y007575D01*
X007718Y007367D01*
X006540Y007367D01*
X006507Y007400D01*
X006406Y007442D01*
X006296Y007442D01*
X006195Y007400D01*
X006118Y007323D01*
X006099Y007277D01*
X004535Y007277D01*
X004441Y007183D01*
X003300Y006042D01*
X003196Y006042D01*
X003095Y006000D01*
X003018Y005923D01*
X002976Y005821D01*
X002976Y005712D01*
X003018Y005611D01*
X003095Y005534D01*
X003196Y005492D01*
X003306Y005492D01*
X003181Y005498D02*
X000811Y005498D01*
X000811Y005597D02*
X003032Y005597D01*
X002983Y005695D02*
X000811Y005695D01*
X000811Y005794D02*
X002976Y005794D01*
X003006Y005892D02*
X000811Y005892D01*
X000811Y005991D02*
X003087Y005991D01*
X003348Y006090D02*
X000811Y006090D01*
X000811Y006188D02*
X003446Y006188D01*
X003545Y006287D02*
X000811Y006287D01*
X000811Y006385D02*
X003643Y006385D01*
X003742Y006484D02*
X000811Y006484D01*
X000811Y006582D02*
X003840Y006582D01*
X003939Y006681D02*
X000891Y006681D01*
X000990Y006779D02*
X002500Y006779D01*
X002903Y006779D02*
X004038Y006779D01*
X004136Y006878D02*
X002962Y006878D01*
X002976Y006976D02*
X004235Y006976D01*
X004333Y007075D02*
X002954Y007075D01*
X002883Y007174D02*
X004432Y007174D01*
X004530Y007272D02*
X000401Y007272D01*
X000401Y007174D02*
X002519Y007174D01*
X000833Y007075D02*
X000401Y007075D01*
X000401Y006976D02*
X000735Y006976D01*
X000636Y006878D02*
X000401Y006878D01*
X000401Y006779D02*
X000538Y006779D01*
X000491Y006681D02*
X000401Y006681D01*
X000401Y006582D02*
X000491Y006582D01*
X000491Y006484D02*
X000401Y006484D01*
X000401Y006385D02*
X000491Y006385D01*
X000491Y006287D02*
X000401Y006287D01*
X000401Y006188D02*
X000491Y006188D01*
X000491Y006090D02*
X000401Y006090D01*
X000401Y005991D02*
X000491Y005991D01*
X000491Y005892D02*
X000401Y005892D01*
X000401Y005794D02*
X000491Y005794D01*
X000491Y005695D02*
X000401Y005695D01*
X000401Y005597D02*
X000491Y005597D01*
X000491Y005498D02*
X000401Y005498D01*
X000401Y005400D02*
X000491Y005400D01*
X000491Y005301D02*
X000401Y005301D01*
X000401Y005203D02*
X000491Y005203D01*
X000491Y005104D02*
X000401Y005104D01*
X000401Y005006D02*
X000491Y005006D01*
X000491Y004907D02*
X000401Y004907D01*
X000401Y004809D02*
X000491Y004809D01*
X000413Y004710D02*
X000401Y004710D01*
X000401Y004119D02*
X006311Y004119D01*
X006551Y004119D02*
X006811Y004119D01*
X006695Y004217D02*
X006667Y004217D01*
X007051Y004119D02*
X008073Y004119D01*
X007974Y004217D02*
X007167Y004217D01*
X007206Y004316D02*
X007876Y004316D01*
X007777Y004414D02*
X007206Y004414D01*
X007168Y004513D02*
X007679Y004513D01*
X007580Y004611D02*
X007091Y004611D01*
X007091Y004710D02*
X007319Y004710D01*
X007345Y004684D02*
X007446Y004642D01*
X007550Y004642D01*
X008641Y003550D01*
X008680Y003512D01*
X008675Y003510D01*
X008598Y003433D01*
X008556Y003331D01*
X008556Y003228D01*
X008455Y003127D01*
X008157Y003127D01*
X008201Y003170D01*
X008242Y003212D01*
X008346Y003212D01*
X008447Y003254D01*
X008524Y003331D01*
X008566Y003432D01*
X008566Y003541D01*
X008524Y003643D01*
X008447Y003720D01*
X008346Y003762D01*
X008236Y003762D01*
X008135Y003720D01*
X008058Y003643D01*
X008016Y003541D01*
X008016Y003438D01*
X007975Y003397D01*
X004847Y003397D01*
X004715Y003397D01*
X004580Y003262D01*
X004476Y003262D01*
X004375Y003220D01*
X004298Y003143D01*
X004256Y003041D01*
X004256Y002932D01*
X004298Y002831D01*
X004375Y002754D01*
X004476Y002712D01*
X004586Y002712D01*
X004687Y002754D01*
X004764Y002831D01*
X004806Y002932D01*
X004806Y003035D01*
X006002Y003035D01*
X005996Y003021D02*
X005996Y002912D01*
X006038Y002811D01*
X006115Y002734D01*
X006216Y002692D01*
X006326Y002692D01*
X006427Y002734D01*
X006500Y002807D01*
X008587Y002807D01*
X008681Y002900D01*
X008756Y002976D01*
X008756Y002882D01*
X008798Y002781D01*
X008875Y002704D01*
X008976Y002662D01*
X009086Y002662D01*
X009187Y002704D01*
X009264Y002781D01*
X009300Y002867D01*
X010662Y002867D01*
X010735Y002794D01*
X010836Y002752D01*
X010946Y002752D01*
X011047Y002794D01*
X011124Y002871D01*
X011166Y002972D01*
X011166Y003081D01*
X011124Y003183D01*
X011047Y003260D01*
X010946Y003302D01*
X010836Y003302D01*
X010735Y003260D01*
X010662Y003187D01*
X009146Y003187D01*
X009099Y003206D01*
X009106Y003222D01*
X009106Y003331D01*
X009064Y003433D01*
X009040Y003457D01*
X010035Y003457D01*
X010167Y003457D01*
X010402Y003692D01*
X010506Y003692D01*
X010607Y003734D01*
X010684Y003811D01*
X010726Y003912D01*
X010726Y004021D01*
X010684Y004123D01*
X010607Y004200D01*
X010506Y004242D01*
X010396Y004242D01*
X010295Y004200D01*
X010218Y004123D01*
X010176Y004021D01*
X010176Y003918D01*
X010035Y003777D01*
X009740Y003777D01*
X009757Y003784D01*
X009834Y003861D01*
X009876Y003962D01*
X009876Y004071D01*
X009834Y004173D01*
X009757Y004250D01*
X009656Y004292D01*
X009552Y004292D01*
X009267Y004577D01*
X009135Y004577D01*
X008780Y004577D01*
X008707Y004650D01*
X008606Y004692D01*
X008496Y004692D01*
X008395Y004650D01*
X008318Y004573D01*
X008276Y004471D01*
X008276Y004368D01*
X007776Y004868D01*
X007776Y004971D01*
X007734Y005073D01*
X007657Y005150D01*
X007556Y005192D01*
X007446Y005192D01*
X007345Y005150D01*
X007268Y005073D01*
X007226Y004971D01*
X007226Y004862D01*
X007268Y004761D01*
X007345Y004684D01*
X007248Y004809D02*
X007091Y004809D01*
X007098Y004907D02*
X007226Y004907D01*
X007240Y005006D02*
X007196Y005006D01*
X007295Y005104D02*
X007300Y005104D01*
X007393Y005203D02*
X009731Y005203D01*
X009731Y005301D02*
X008882Y005301D01*
X008980Y005400D02*
X009731Y005400D01*
X009731Y005498D02*
X009079Y005498D01*
X009178Y005597D02*
X009731Y005597D01*
X009731Y005695D02*
X009276Y005695D01*
X009375Y005794D02*
X009731Y005794D01*
X009731Y005892D02*
X009473Y005892D01*
X009572Y005991D02*
X009731Y005991D01*
X009346Y006218D02*
X008655Y005527D01*
X007497Y005527D01*
X008617Y006647D01*
X009639Y006647D01*
X009616Y006591D01*
X009616Y006542D01*
X009566Y006542D01*
X009465Y006500D01*
X009388Y006423D01*
X009346Y006321D01*
X009346Y006218D01*
X009316Y006188D02*
X008159Y006188D01*
X008257Y006287D02*
X009346Y006287D01*
X009373Y006385D02*
X008356Y006385D01*
X008454Y006484D02*
X009449Y006484D01*
X009616Y006582D02*
X008553Y006582D01*
X008298Y006779D02*
X004490Y006779D01*
X004391Y006681D02*
X008199Y006681D01*
X008100Y006582D02*
X004293Y006582D01*
X004194Y006484D02*
X008002Y006484D01*
X007903Y006385D02*
X004096Y006385D01*
X003997Y006287D02*
X007805Y006287D01*
X007706Y006188D02*
X003899Y006188D01*
X003800Y006090D02*
X007608Y006090D01*
X007509Y005991D02*
X003702Y005991D01*
X003603Y005892D02*
X007411Y005892D01*
X007312Y005794D02*
X003526Y005794D01*
X003519Y005695D02*
X007214Y005695D01*
X007115Y005597D02*
X003470Y005597D01*
X004589Y006878D02*
X008396Y006878D01*
X007992Y007075D02*
X016092Y007075D01*
X016101Y007096D02*
X016037Y006943D01*
X016037Y006778D01*
X016101Y006626D01*
X016218Y006509D01*
X016370Y006446D01*
X017126Y006446D01*
X017279Y006509D01*
X017395Y006626D01*
X017459Y006778D01*
X017459Y006943D01*
X017395Y007096D01*
X017279Y007213D01*
X017126Y007276D01*
X016370Y007276D01*
X016218Y007213D01*
X016101Y007096D01*
X016178Y007174D02*
X008091Y007174D01*
X008189Y007272D02*
X016360Y007272D01*
X016051Y006976D02*
X012418Y006976D01*
X012417Y006977D02*
X012017Y006977D01*
X011885Y006977D01*
X011585Y006677D01*
X011491Y006583D01*
X011491Y005219D01*
X011445Y005200D01*
X011368Y005123D01*
X011326Y005021D01*
X011326Y004912D01*
X011368Y004811D01*
X011445Y004734D01*
X011546Y004692D01*
X011656Y004692D01*
X011757Y004734D01*
X011834Y004811D01*
X011876Y004912D01*
X011876Y005021D01*
X011834Y005123D01*
X011811Y005146D01*
X011811Y006450D01*
X012017Y006657D01*
X012285Y006657D01*
X012381Y006561D01*
X012306Y006592D01*
X012196Y006592D01*
X012095Y006550D01*
X012018Y006473D01*
X011976Y006371D01*
X011976Y006262D01*
X012018Y006161D01*
X012095Y006084D01*
X012196Y006042D01*
X012300Y006042D01*
X012526Y005815D01*
X012526Y005712D01*
X012568Y005611D01*
X012645Y005534D01*
X012746Y005492D01*
X012856Y005492D01*
X012957Y005534D01*
X013034Y005611D01*
X013076Y005712D01*
X013076Y005821D01*
X013034Y005923D01*
X012957Y006000D01*
X012856Y006042D01*
X012752Y006042D01*
X012571Y006223D01*
X012646Y006192D01*
X012756Y006192D01*
X012857Y006234D01*
X012934Y006311D01*
X012976Y006412D01*
X012976Y006521D01*
X012934Y006623D01*
X012857Y006700D01*
X012756Y006742D01*
X012652Y006742D01*
X012511Y006883D01*
X012417Y006977D01*
X012516Y006878D02*
X016037Y006878D01*
X016037Y006779D02*
X012615Y006779D01*
X012876Y006681D02*
X016078Y006681D01*
X016144Y006582D02*
X012951Y006582D01*
X012976Y006484D02*
X016278Y006484D01*
X017218Y006484D02*
X017601Y006484D01*
X017601Y006582D02*
X017352Y006582D01*
X017418Y006681D02*
X017601Y006681D01*
X017601Y006779D02*
X017459Y006779D01*
X017459Y006878D02*
X017601Y006878D01*
X017601Y006976D02*
X017445Y006976D01*
X017404Y007075D02*
X017601Y007075D01*
X017601Y007174D02*
X017318Y007174D01*
X017136Y007272D02*
X017601Y007272D01*
X017601Y007371D02*
X008326Y007371D01*
X008438Y007469D02*
X017601Y007469D01*
X017601Y007568D02*
X008476Y007568D01*
X008476Y007666D02*
X017601Y007666D01*
X017601Y007765D02*
X008438Y007765D01*
X008324Y007863D02*
X017601Y007863D01*
X017601Y007962D02*
X000401Y007962D01*
X000401Y008060D02*
X017601Y008060D01*
X017601Y006385D02*
X012965Y006385D01*
X012910Y006287D02*
X017601Y006287D01*
X017601Y006188D02*
X012606Y006188D01*
X012705Y006090D02*
X017601Y006090D01*
X017601Y005991D02*
X012966Y005991D01*
X013047Y005892D02*
X016518Y005892D01*
X016523Y005898D02*
X016392Y005767D01*
X016321Y005595D01*
X016321Y005410D01*
X016392Y005238D01*
X016523Y005107D01*
X016695Y005036D01*
X016880Y005036D01*
X017052Y005107D01*
X017183Y005238D01*
X017254Y005410D01*
X017254Y005595D01*
X017183Y005767D01*
X017052Y005898D01*
X016880Y005969D01*
X016695Y005969D01*
X016523Y005898D01*
X016419Y005794D02*
X013076Y005794D01*
X013069Y005695D02*
X015591Y005695D01*
X015568Y005673D02*
X015526Y005571D01*
X015526Y005468D01*
X014685Y004627D01*
X012530Y004627D01*
X012457Y004700D01*
X012356Y004742D01*
X012246Y004742D01*
X012145Y004700D01*
X012068Y004623D01*
X012026Y004521D01*
X012026Y004412D01*
X012068Y004311D01*
X012145Y004234D01*
X012246Y004192D01*
X012356Y004192D01*
X012457Y004234D01*
X012530Y004307D01*
X014685Y004307D01*
X014817Y004307D01*
X015752Y005242D01*
X015856Y005242D01*
X015957Y005284D01*
X016034Y005361D01*
X016076Y005462D01*
X016076Y005571D01*
X016034Y005673D01*
X015957Y005750D01*
X015856Y005792D01*
X015746Y005792D01*
X015645Y005750D01*
X015568Y005673D01*
X015537Y005597D02*
X013020Y005597D01*
X012872Y005498D02*
X015526Y005498D01*
X015458Y005400D02*
X011811Y005400D01*
X011811Y005498D02*
X012731Y005498D01*
X012582Y005597D02*
X011811Y005597D01*
X011811Y005695D02*
X012533Y005695D01*
X012526Y005794D02*
X011811Y005794D01*
X011811Y005892D02*
X012449Y005892D01*
X012351Y005991D02*
X011811Y005991D01*
X011811Y006090D02*
X012089Y006090D01*
X012007Y006188D02*
X011811Y006188D01*
X011811Y006287D02*
X011976Y006287D01*
X011982Y006385D02*
X011811Y006385D01*
X011844Y006484D02*
X012029Y006484D01*
X011943Y006582D02*
X012174Y006582D01*
X012329Y006582D02*
X012359Y006582D01*
X011786Y006878D02*
X010166Y006878D01*
X010265Y006779D02*
X011688Y006779D01*
X011589Y006681D02*
X010363Y006681D01*
X010411Y006582D02*
X011491Y006582D01*
X011491Y006484D02*
X010411Y006484D01*
X010411Y006385D02*
X011491Y006385D01*
X011491Y006287D02*
X010411Y006287D01*
X010411Y006188D02*
X011491Y006188D01*
X011491Y006090D02*
X010411Y006090D01*
X010411Y005991D02*
X011491Y005991D01*
X011491Y005892D02*
X010411Y005892D01*
X010411Y005794D02*
X011491Y005794D01*
X011491Y005695D02*
X010411Y005695D01*
X010440Y005597D02*
X011491Y005597D01*
X011491Y005498D02*
X010524Y005498D01*
X010556Y005400D02*
X011491Y005400D01*
X011491Y005301D02*
X010552Y005301D01*
X010506Y005203D02*
X011452Y005203D01*
X011360Y005104D02*
X010366Y005104D01*
X010197Y005104D02*
X010051Y005104D01*
X010051Y005006D02*
X011326Y005006D01*
X011328Y004907D02*
X010051Y004907D01*
X010051Y004809D02*
X011371Y004809D01*
X011503Y004710D02*
X010051Y004710D01*
X010051Y004611D02*
X012063Y004611D01*
X012026Y004513D02*
X009816Y004513D01*
X009676Y004414D02*
X012026Y004414D01*
X012066Y004316D02*
X009528Y004316D01*
X009506Y004414D02*
X009430Y004414D01*
X009366Y004513D02*
X009331Y004513D01*
X009321Y004611D02*
X008745Y004611D01*
X008357Y004611D02*
X008033Y004611D01*
X008131Y004513D02*
X008293Y004513D01*
X008276Y004414D02*
X008230Y004414D01*
X007934Y004710D02*
X009316Y004710D01*
X009348Y004809D02*
X007836Y004809D01*
X007776Y004907D02*
X009433Y004907D01*
X009731Y005006D02*
X007762Y005006D01*
X007703Y005104D02*
X009731Y005104D01*
X010051Y005203D02*
X010056Y005203D01*
X008922Y005794D02*
X007765Y005794D01*
X007863Y005892D02*
X009021Y005892D01*
X009119Y005991D02*
X007962Y005991D01*
X008060Y006090D02*
X009218Y006090D01*
X008824Y005695D02*
X007666Y005695D01*
X007567Y005597D02*
X008725Y005597D01*
X011811Y005301D02*
X015359Y005301D01*
X015261Y005203D02*
X011811Y005203D01*
X011842Y005104D02*
X015162Y005104D01*
X015064Y005006D02*
X011876Y005006D01*
X011874Y004907D02*
X014965Y004907D01*
X014867Y004809D02*
X011832Y004809D01*
X011700Y004710D02*
X012170Y004710D01*
X012433Y004710D02*
X014768Y004710D01*
X015122Y004611D02*
X017601Y004611D01*
X017601Y004513D02*
X015024Y004513D01*
X014925Y004414D02*
X017601Y004414D01*
X017601Y004316D02*
X014826Y004316D01*
X015221Y004710D02*
X017601Y004710D01*
X017601Y004809D02*
X015319Y004809D01*
X015418Y004907D02*
X017601Y004907D01*
X017601Y005006D02*
X015516Y005006D01*
X015615Y005104D02*
X016530Y005104D01*
X016428Y005203D02*
X015713Y005203D01*
X015975Y005301D02*
X016366Y005301D01*
X016325Y005400D02*
X016050Y005400D01*
X016076Y005498D02*
X016321Y005498D01*
X016321Y005597D02*
X016066Y005597D01*
X016011Y005695D02*
X016362Y005695D01*
X017057Y005892D02*
X017601Y005892D01*
X017601Y005794D02*
X017156Y005794D01*
X017212Y005695D02*
X017601Y005695D01*
X017601Y005597D02*
X017253Y005597D01*
X017254Y005498D02*
X017601Y005498D01*
X017601Y005400D02*
X017250Y005400D01*
X017209Y005301D02*
X017601Y005301D01*
X017601Y005203D02*
X017147Y005203D01*
X017044Y005104D02*
X017601Y005104D01*
X017601Y004217D02*
X012417Y004217D01*
X012185Y004217D02*
X010565Y004217D01*
X010686Y004119D02*
X016515Y004119D01*
X016523Y004126D02*
X016392Y003995D01*
X016321Y003824D01*
X016321Y003638D01*
X016392Y003467D01*
X016523Y003335D01*
X016695Y003264D01*
X016880Y003264D01*
X017052Y003335D01*
X017183Y003467D01*
X017254Y003638D01*
X017254Y003824D01*
X017183Y003995D01*
X017052Y004126D01*
X016880Y004197D01*
X016695Y004197D01*
X016523Y004126D01*
X016417Y004020D02*
X010726Y004020D01*
X010726Y003922D02*
X016361Y003922D01*
X016321Y003823D02*
X010689Y003823D01*
X010585Y003725D02*
X016321Y003725D01*
X016326Y003626D02*
X010337Y003626D01*
X010238Y003527D02*
X016367Y003527D01*
X016430Y003429D02*
X009066Y003429D01*
X009106Y003330D02*
X016535Y003330D01*
X017039Y003330D02*
X017601Y003330D01*
X017601Y003232D02*
X011075Y003232D01*
X011145Y003133D02*
X017601Y003133D01*
X017601Y003035D02*
X011166Y003035D01*
X011151Y002936D02*
X017601Y002936D01*
X017601Y002838D02*
X011091Y002838D01*
X010691Y002838D02*
X009288Y002838D01*
X009222Y002739D02*
X016292Y002739D01*
X016257Y002725D02*
X016140Y002608D01*
X016077Y002455D01*
X016077Y002290D01*
X016140Y002137D01*
X016257Y002021D01*
X016409Y001957D01*
X017165Y001957D01*
X017318Y002021D01*
X017435Y002137D01*
X017498Y002290D01*
X017498Y002455D01*
X017435Y002608D01*
X017318Y002725D01*
X017165Y002788D01*
X016409Y002788D01*
X016257Y002725D01*
X016173Y002641D02*
X000401Y002641D01*
X000401Y002739D02*
X004410Y002739D01*
X004295Y002838D02*
X000401Y002838D01*
X000401Y002936D02*
X004256Y002936D01*
X004256Y003035D02*
X000401Y003035D01*
X000401Y003133D02*
X004294Y003133D01*
X004404Y003232D02*
X000401Y003232D01*
X000401Y003330D02*
X004649Y003330D01*
X004847Y003077D02*
X004806Y003035D01*
X004847Y003077D02*
X006019Y003077D01*
X005996Y003021D01*
X005996Y002936D02*
X004806Y002936D01*
X004767Y002838D02*
X006027Y002838D01*
X006110Y002739D02*
X004652Y002739D01*
X006432Y002739D02*
X008840Y002739D01*
X008775Y002838D02*
X008618Y002838D01*
X008717Y002936D02*
X008756Y002936D01*
X008461Y003133D02*
X008164Y003133D01*
X008394Y003232D02*
X008556Y003232D01*
X008556Y003330D02*
X008524Y003330D01*
X008565Y003429D02*
X008597Y003429D01*
X008566Y003527D02*
X008664Y003527D01*
X008566Y003626D02*
X008531Y003626D01*
X008467Y003725D02*
X008436Y003725D01*
X008369Y003823D02*
X000401Y003823D01*
X000401Y003725D02*
X008147Y003725D01*
X008051Y003626D02*
X000401Y003626D01*
X000401Y003527D02*
X008016Y003527D01*
X008007Y003429D02*
X000401Y003429D01*
X000401Y003922D02*
X008270Y003922D01*
X008171Y004020D02*
X000401Y004020D01*
X000401Y002542D02*
X016113Y002542D01*
X016077Y002443D02*
X009963Y002443D01*
X009957Y002450D02*
X009856Y002492D01*
X009746Y002492D01*
X009645Y002450D01*
X009568Y002373D01*
X009526Y002271D01*
X009526Y002168D01*
X009135Y001777D01*
X005330Y001777D01*
X005257Y001850D01*
X005156Y001892D01*
X005046Y001892D01*
X004945Y001850D01*
X004868Y001773D01*
X004826Y001671D01*
X004826Y001562D01*
X004868Y001461D01*
X004945Y001384D01*
X005046Y001342D01*
X005156Y001342D01*
X005257Y001384D01*
X005330Y001457D01*
X009267Y001457D01*
X009361Y001550D01*
X009361Y001551D01*
X009752Y001942D01*
X009856Y001942D01*
X009957Y001984D01*
X010034Y002061D01*
X010076Y002162D01*
X010076Y002271D01*
X010034Y002373D01*
X009957Y002450D01*
X010046Y002345D02*
X016077Y002345D01*
X016095Y002246D02*
X010076Y002246D01*
X010070Y002148D02*
X016136Y002148D01*
X016228Y002049D02*
X010023Y002049D01*
X009878Y001951D02*
X017601Y001951D01*
X017601Y002049D02*
X017347Y002049D01*
X017439Y002148D02*
X017601Y002148D01*
X017601Y002246D02*
X017480Y002246D01*
X017498Y002345D02*
X017601Y002345D01*
X017601Y002443D02*
X017498Y002443D01*
X017462Y002542D02*
X017601Y002542D01*
X017601Y002641D02*
X017402Y002641D01*
X017283Y002739D02*
X017601Y002739D01*
X017601Y003429D02*
X017145Y003429D01*
X017208Y003527D02*
X017601Y003527D01*
X017601Y003626D02*
X017249Y003626D01*
X017254Y003725D02*
X017601Y003725D01*
X017601Y003823D02*
X017254Y003823D01*
X017213Y003922D02*
X017601Y003922D01*
X017601Y004020D02*
X017158Y004020D01*
X017059Y004119D02*
X017601Y004119D01*
X017601Y001852D02*
X009663Y001852D01*
X009564Y001754D02*
X017601Y001754D01*
X017601Y001655D02*
X009466Y001655D01*
X009367Y001557D02*
X017601Y001557D01*
X017601Y001458D02*
X009269Y001458D01*
X009210Y001852D02*
X005251Y001852D01*
X004951Y001852D02*
X000401Y001852D01*
X000401Y001754D02*
X004860Y001754D01*
X004826Y001655D02*
X000401Y001655D01*
X000401Y001557D02*
X004828Y001557D01*
X004871Y001458D02*
X000401Y001458D01*
X000401Y001359D02*
X005004Y001359D01*
X005199Y001359D02*
X017601Y001359D01*
X017601Y001261D02*
X000401Y001261D01*
X000401Y001162D02*
X017601Y001162D01*
X010707Y003232D02*
X009106Y003232D01*
X009796Y003823D02*
X010081Y003823D01*
X010176Y003922D02*
X009859Y003922D01*
X009876Y004020D02*
X010176Y004020D01*
X010216Y004119D02*
X009857Y004119D01*
X009790Y004217D02*
X010337Y004217D01*
X009639Y002443D02*
X000401Y002443D01*
X000401Y002345D02*
X009557Y002345D01*
X009526Y002246D02*
X000401Y002246D01*
X000401Y002148D02*
X009506Y002148D01*
X009407Y002049D02*
X000401Y002049D01*
X000401Y001951D02*
X009309Y001951D01*
X007894Y006976D02*
X011885Y006976D01*
X008078Y007863D02*
X000401Y007863D01*
X000401Y007765D02*
X007965Y007765D01*
X007926Y007666D02*
X000401Y007666D01*
X000401Y007568D02*
X007919Y007568D01*
X007821Y007469D02*
X000401Y007469D01*
X000401Y007371D02*
X006166Y007371D01*
X006536Y007371D02*
X007722Y007371D01*
D12*
X008201Y007617D03*
X006951Y007767D03*
X006351Y007167D03*
X007001Y006367D03*
X006501Y005767D03*
X005001Y006167D03*
X003251Y005767D03*
X002301Y005367D03*
X000651Y004567D03*
X002301Y006217D03*
X002701Y006967D03*
X007501Y004917D03*
X006931Y004367D03*
X006431Y004367D03*
X005301Y004167D03*
X004531Y002987D03*
X005651Y002767D03*
X006271Y002967D03*
X007851Y002417D03*
X009031Y002937D03*
X008831Y003277D03*
X008291Y003487D03*
X009601Y004017D03*
X010451Y003967D03*
X010851Y004417D03*
X011601Y004967D03*
X012301Y004467D03*
X010281Y005367D03*
X009591Y004677D03*
X008551Y004417D03*
X008101Y005667D03*
X009621Y006267D03*
X009891Y006537D03*
X011001Y006767D03*
X012251Y006317D03*
X012701Y006467D03*
X012751Y006867D03*
X014951Y006367D03*
X015801Y005517D03*
X012801Y005767D03*
X016401Y007767D03*
X014951Y003717D03*
X014951Y003267D03*
X015751Y002567D03*
X011501Y003467D03*
X010891Y003027D03*
X009801Y002217D03*
X010551Y001367D03*
X011001Y001367D03*
X005101Y001617D03*
X000651Y001267D03*
D13*
X004531Y002987D02*
X004781Y003237D01*
X008041Y003237D01*
X008291Y003487D01*
X008801Y003617D02*
X010101Y003617D01*
X010451Y003967D01*
X009601Y004017D02*
X009201Y004417D01*
X008551Y004417D01*
X009591Y004677D02*
X009891Y004677D01*
X009891Y006537D01*
X010011Y006807D02*
X010251Y006567D01*
X010251Y005397D01*
X010281Y005367D01*
X009621Y006267D02*
X008721Y005367D01*
X007331Y005367D01*
X006931Y004967D01*
X006931Y004367D01*
X006431Y004367D02*
X006431Y004687D01*
X008551Y006807D01*
X010011Y006807D01*
X011651Y006517D02*
X011651Y005017D01*
X011601Y004967D01*
X012301Y004467D02*
X014751Y004467D01*
X015801Y005517D01*
X012801Y005767D02*
X012251Y006317D01*
X012701Y006467D02*
X012351Y006817D01*
X011951Y006817D01*
X011651Y006517D01*
X008801Y003617D02*
X007501Y004917D01*
X008831Y003277D02*
X008521Y002967D01*
X006271Y002967D01*
X009031Y002937D02*
X009121Y003027D01*
X010891Y003027D01*
X009801Y002217D02*
X009201Y001617D01*
X005101Y001617D01*
X000651Y004567D02*
X000651Y006667D01*
X000951Y006967D01*
X002701Y006967D01*
X003251Y005767D02*
X004601Y007117D01*
X006351Y007117D01*
X006351Y007167D01*
D14*
X007801Y007167D01*
X008201Y007567D01*
X008201Y007617D01*
M02*
